<?xml version="1.0" encoding="UTF-8"?>
<svg version="1.1" viewBox="0 0 500 500" xmlns="http://www.w3.org/2000/svg">
<g>
<path d="m330 500.48h-329.5v-499.95h499.91v499.95h-170.4m-263.86-105.24s-0.007813-0.066406-0.29297 0.074219c-1.4727 2.0703-2.9414 4.1445-4.7109 6.6328 3.3359 0.26953 6.1094 0.49609 9.3164 0.8125 3.4883 0.011719 6.9805 0.09375 10.469 0.019532 3.4258-0.070313 6.8477-0.29688 10.715-0.47266-1.082 2.4688-1.9609 4.4727-2.918 6.6562 0.97266 0.18359 1.8047 0.41016 2.6445 0.48828 2.4414 0.22656 4.7422-0.48047 6.8906-1.4688 3.7266-1.7188 7.3555-3.6562 11.207-5.5938 5.6602 2.1992 11.695 4.1055 17.965 5.0117 6.2031 0.90234 12.457 1.4531 18.797 2.1719-0.11328 0.33594-0.20703 0.70703-0.36328 1.0508-0.1875 0.41016-0.42578 0.79688-0.77344 1.4297 11.309 4.0977 21.898 1.7383 32.668-2.6836-0.41016 1.1875-0.67188 1.9375-1.0039 2.8906 1.0078-0.16406 1.7773-0.25 2.5273-0.42578 0.76953-0.17578 1.5273-0.41797 2.2773-0.66016 7.8672-2.543 15.16-6.3164 22.266-10.477 2.793-1.6367 5.5078-3.5703 9.4102-2.2227 2 0.39844 2 0.39844 1.625 2.7031-0.66016 2.8281-1.2422 5.6797-1.9961 8.4844-1.3203 4.9219-2.6055 9.8594-4.168 14.703-1.4375 4.4727-3.1094 8.8594-5.2148 13.109-1.7188 3.4727-3.5312 6.8594-5.6992 10.047-2.3984 3.5273-5.4258 6.3516-9.6289 7.6484-0.22266 0.066406-0.45703 0.09375-0.71094 0.14453 3.9023 3.5625 7.6523 6.1211 9.6094 6.5586 11.996-18.719 20.012-38.934 22.371-61.445 2.5156 0.60938 4.6641 1.6328 6.0859 3.9844 1.6367 2.7031 3.3164 5.3945 5.1602 7.9609 2.3477 3.2656 4.7734 6.4922 7.3672 9.5703 1.6445 1.9531 3.3906 3.9219 6.0117 5.1602 0.12109-1.0938 0.22266-1.9727 0.32422-2.8945 2.1914 2.207 4.1758 4.457 6.4258 6.4023 2.1328 1.8398 4.5469 3.3594 7.0977 5.2344 4.2969 2.4297 8.8438 3.9297 13.844 4.043 0.11328-1.0586 0.19922-1.8828 0.30078-2.8125 0.45703 0.10547 0.76562 0.14062 1.0508 0.24609 4.5742 1.7031 9.1016 3.5547 13.73 5.0859 3.0508 1.0078 6.2461 1.5586 9.7539 2.4141 3.7734 0.60938 7.5312 1.3438 11.402 1.3906v-2.1172c0.57812 0.21875 0.94141 0.33984 1.293 0.49219 3.8398 1.6758 7.6484 3.418 11.52 5.0117 2.4766 1.0195 5.0039 2 8.043 2.1094h1.5156c0.19141-1.1484 0.34766-2.1133 0.52734-3.1914 4.4531 2.2148 8.5742 4.4062 12.809 6.3359 4.1758 1.9062 8.3633 3.8633 13.391 4.8164-0.53516-1.1836-0.84766-1.8984-1.1758-2.6055-2.2305-4.8125-4.2539-9.707-5.5742-14.863-0.61328-2.3984-1.0781-4.7656 1.0078-6.6953-1.207-0.77734-2.3477-1.3633-3.3086-2.168-2.2461-1.875-2.2383-3.9844-0.10547-5.9961 0.10156-0.09375 0.11328-0.28516 0.30859-0.83594-1.0352-1.6289-2.0391-3.6211-3.4258-5.3008-1.9766-2.3906-2.0977-2.293-1.4688-5.2344-6.2695-5.4102-13.598-9.2109-21.008-12.969 0.86719-0.14453 1.6953-0.16406 2.5234-0.14062 9.0352 0.25781 18.051 0.17188 26.918-1.9062 2.4961-0.58203 5.0391-1.0508 7.2891-2.4219-0.60547-1.207-1.9102-2.0039-1.2539-3.5391 2.2227-0.58594 4.4531-1.1094 6.6406-1.7734 2.2734-0.69141 4.5312-1.4414 6.7383-2.3047 3.4453-1.3516 6.8438-2.8203 10.598-4.2734 4.4297-2.25 8.8555-4.5039 12.562-7.9336-0.29688-0.71875-0.53125-1.2734-0.80078-1.9219 9.3789-0.87891 18.617-1.7266 26.871-6.5234-0.25-0.67969-0.40234-1.0859-0.5625-1.5117 4.0352-0.24609 7.9023-0.44141 11.762-0.73828 2.1836-0.16797 4.3516-0.50781 6.957-0.78125 6.4141-0.85938 12.871-1.4961 19.238-2.6484 5.8203-1.0508 11.633-2.3594 17.027-4.9766 0.41797-0.20703 1.1875-0.46094 1.1758-0.66406-0.070313-1.4219 1.1641-1.4922 1.9414-1.9414 0.95312-0.54688 2.0273-0.87891 3.0391-1.3242 1.4453-0.63281 2.8828-1.2812 4.7148-2.0977-6.4844-1.1523-12.684-0.78516-18.074-3.0664-0.41406-1.0312-0.6875-1.707-1.3398-2.5-2.5625-0.6875-5.2227-0.87891-7.6602 0.058593-2.5625 0.98828-4.7969 0.84375-7.2539-0.80859-1.8828-1.1133-4.0391-1.9414-5.5742-3.4141-1.7148-1.6484-3.6094-2.3398-6.1641-2.8242-1.293-0.21484-2.5859-0.43359-4.1719-0.89063-4.0156-0.63281-8.0469-0.89453-12.398-0.57422-0.12891-0.21875-0.41406-0.50781-0.35156-0.63672 0.25391-0.55078 0.61328-1.0547 1.0391-1.7422-9.7031-3.5195-19.242-7.0312-29.762-7.2383 0.26562-0.80859 0.49219-1.5117 0.72656-2.2383-6.3945-3.3125-12.969-5.0938-20.258-4.6055 0.32031-0.39844 0.51562-0.73828 0.80078-0.97656 2.4219-2.0273 4.918-3.9727 7.2812-6.0664 2.7148-2.3984 5.3242-4.9219 8.2461-7.5742 1.793-1.9727 3.6172-3.918 5.3594-5.9336 0.49219-0.57031 0.96875-1.3281 1.0273-2.0352 0.046874-0.52344-0.59766-1.1055-0.92188-1.6406 1.8906-2.3438 3.7578-4.6602 5.918-7.1133 2.5742-2.9922 4.793-6.2109 6.5898-9.9297-0.55469-0.19141-0.92578-0.27344-1.2461-0.44531-0.31641-0.17187-0.58203-0.43359-1.0078-0.76172 3.2148-4.1914 6.5625-8.1719 7.9297-13.449-0.89844-0.082031-1.5547-0.14062-2.4219-0.21484 4.3125-7.5625 9.375-14.441 12.441-22.449-1.1797-0.35547-2.1055-0.63672-3.1641-0.95312 3.5391-6.5078 7.3047-12.637 9.8438-19.461-0.60156-0.1875-1.0859-0.33594-1.7852-0.55469 0.60156-0.81641 1.0977-1.4883 1.8789-2.293 3.5664-4.543 7.1719-9.0625 9.5703-14.383 0.089843-0.20312 0.097656-0.44531 0.15625-0.74219-0.51172-0.30859-1.0117-0.61328-1.5586-0.94531 3.2031-7.8398 6.3516-15.523 11.625-22.184-1.957 0.80078-3.7227 1.7969-5.5195 2.7305-2.5938 1.3477-5.168 2.7383-7.8242 3.9414-2.1836 0.98828-2.707 0.69922-3.6562-1.457-8.0234 3.6523-15.688 7.8086-21.605 14.965-3.0117-1.4883-5.8945-2.9102-9.0117-4.4492-0.21484 0.15234-0.79297 0.4375-1.2109 0.875-2.6094 2.7383-5.1836 5.5078-7.7539 8.2812-0.14062 0.15234-0.12109 0.44922-0.44531 0.84766-1.6836 2.3516-3.3633 4.707-5.043 7.0508-1.332-0.70703-1.332-0.70703-2.6484-2.9961-12.926 4.5469-25.82 9.1914-36.875 17.559-2.0781-1.1562-2.3789-3.2031-3.0312-5.0859-1.0625 0.16406-2.0117 0.22656-2.9141 0.47266-3.7891 1.0391-7.5664 2.1289-11.672 3.2266-1.543 0.67969-3.082 1.3594-4.7305 1.9258 0 0-0.11328-0.11719-0.074219-0.45703 0.84766-1.7227 1.6953-3.4492 2.793-5.3906 3.0977-6.5742 6.168-13.16 7.6523-20.344 0.58203-2.8242 1.25-5.6367 1.0625-8.7969-1.5781 0.87109-2.7969 2.4883-4.8711 1.4102 0.35156-0.66797 0.62109-1.2266 0.93359-1.7539 3.6289-6.0977 6.2969-12.547 7.168-19.652 0.19531-1.582 0.25-3.1445-0.48438-4.6836-1.3516 0.94922-2.6562 0.70703-4.0273-0.10547 0.050781-0.40625 0.078125-0.79297 0.15625-1.168 1.9297-8.9961 3.043-18.074 2.6797-27.293-0.11719-2.9648 0.074219-5.9922-1.3516-8.9336-2.1562 0.91797-3.9297 2.8594-6.6211 2.2148 2.3867-10.805 3.0938-21.555 0.89063-32.395-1.4844 0.20312-2.1172 1.9258-3.5469 0.78125 0.054688-5.2344 0.20703-10.465 0.13672-15.695-0.0625-4.4258-0.36328-8.8477-0.60938-13.27-0.050781-0.96484-0.32812-1.9141-0.55469-3.1523-1.1172 1.1836-1.9492 2.0586-2.7773 2.9375-0.375-1.0195-0.38672-1.8555-0.28516-2.6758 0.44531-3.6055 0.97656-7.1992 1.3828-10.809 0.41016-3.6094 0.625-7.2383 1.0781-10.84 0.97656-7.7852 1.5312-15.586 1.2969-23.43-0.027343-0.875-0.30469-1.7422-0.46484-2.6094-0.20703-0.046875-0.41016-0.089843-0.61328-0.13672-11.688 13.848-21.195 29.309-31.742 44.004-0.16797-0.042969-0.33594-0.085938-0.50781-0.12891-0.23047-1.1523-0.46094-2.3086-0.69922-3.4961-2.3477 1.9648-8.9531 11.418-12.078 17.043-1.6016 2.7188-3.1953 5.4375-4.8086 8.1445-0.62109 1.0508-1.293 2.0703-2.125 3.4023-0.74609-1.2539-1.2734-2.1484-1.8672-3.1562-8.1758 8.2148-12.957 18.297-17.09 28.746-2.7539-0.54688-3.3359-2.8906-4.6055-4.8711-5.5234 5.6602-9.4219 12.266-12.82 19.594-2.1602 4.8711-4.3203 9.7422-6.6094 14.902-1.3359-0.78906-2.4648-1.4531-3.7305-2.1992-1.1484 2.0234-2.6836 4.0273-3.5 6.2891-1.8203 5.0391-3.082 10.254-3.3672 16.082v4.2695c-1.0625-0.63281-1.7891-0.90625-2.2891-1.4062-0.55469-0.55859-0.90625-1.3242-1.4531-2.168-0.84375 1.5469-1.7383 2.7969-2.2461 4.1875-1.5156 4.1406-3.2109 8.2109-3.8359 12.648-0.60156 4.2812-1.8164 8.4766-1.9336 13-0.11719 0.13281-0.14062 0.28516-0.14453 0.82812 0.027344 0.51562 0.054688 1.0312-0.019531 1.9492-0.082031 1.125-0.16016 2.2461-0.26953 3.7812-2.0781-3.6602-4.6992-6.2969-7.4531-8.7773-1.5-1.3516-3.2695-2.4062-5.1445-3.8672-0.6875-0.35156-1.3789-0.70703-1.8867-0.96484-1.7188 1.1562-3.3125 2.2266-4.9492 3.3242-5.4258-12.438-14.27-21.883-23.184-31.242-2.4492 1.4336-2.4492 1.4336-4.1328 1.4766-0.26953-8.2891-4.2852-14.992-9.0391-21.527-1.6328 0.76562-3.1367 1.1719-4.8398 0.24609-0.085937-4.1211-1.7852-7.8047-3.6875-11.352-1.9297-3.5977-4.1133-7.0742-6.8398-10.129-0.85938 0.40625-1.6133 0.76562-2.457 1.168-6.1289-7.2812-10.379-15.602-15.57-23.332 2.8555 11.293 2.9258 22.832 3.8867 34.574-2.3281-0.31641-2.1016 1.25-2.1484 2.4609-0.17578 4.75-0.058594 9.4922 0.73047 14.199 0.19531 1.1523 0.1875 2.3359 0.27734 3.5195h-1.9414c-0.18359 1.7188-0.35937 3.3555-0.78125 5.3086-0.20703 4.5312-0.41406 9.0664-0.6875 13.977-0.09375 1.8516-0.09375 1.8516-2.0547 1.6172-0.42969-0.089843-0.86328-0.17578-1.6133-0.32812-0.34375 3.7305-0.82031 7.2422-0.94922 10.766-0.16797 4.5117-0.050781 9.0391-0.074219 13.559-0.003906 0.19141-0.16797 0.38672-0.3125 0.70703-0.67188-0.35156-1.2617-0.65625-1.9805-1.0273-1.7852 5.2383-0.82422 10.402-0.36719 15.641-0.93359-0.074219-1.6797-0.13672-2.5156-0.20312 0 2.7383 0 5.3359-0.027344 8.3438 0.53516 4.0469 1.0703 8.0938 1.6055 12.164-0.53125 0.17578-1.1016 0.36328-1.6445 0.54297-0.3125 3.0977 0.089843 6.0195 0.9375 8.8008 1.7344 5.668 3.7188 11.254 5.5859 16.883 0.37891 1.1289 0.69922 2.2734 1.1914 3.8867-6.6562-3.8984-13.461-4.3477-20.383-4.5352-0.13672 0.91797-0.23828 1.6016-0.36328 2.4453-9.8477-3.6758-19.91-3.7266-30.152-2.8125v2.4023c-0.78906-0.47656-1.3203-0.79688-1.8477-1.1172-2.5-1.5117-4.8984-3.2188-8.0195-4.1719-3.0859-1.6602-6.4492-2.5117-9.4492-3.3945-1.4141 0.82031-2.5391 1.4727-3.6445 2.1094-0.51172-0.47266-0.84375-0.70312-1.082-1.0078-1.5938-2.0273-3.5859-3.5586-5.8359-4.7852-1.3164-0.71875-2.5195-1.2422-3.8242 0.19141-0.41016 0.45312-1.4219 0.35938-2.4102 0.28516-3.1836-1.2852-6.3711-2.5625-9.5469-3.8633-1.6523-0.67578-3.2891-1.4023-5.0195-2.2891-0.10938 0.019531-0.21875 0.039062-0.32813 0.0625 0.078126 0.10156 0.15625 0.20312 0.26953 0.63672 1.3906 2.1094 2.7969 4.2109 4.1602 6.3398 0.28906 0.44531 0.71875 1.3008 0.58203 1.4336-0.97266 0.91406-0.15234 1.5039 0.24609 2.1875 2.9297 5.0039 6.5508 9.5117 10.477 13.727 4.6289 4.9688 9.5781 9.6445 14.422 14.41 1.6797 1.6562 3.4609 3.207 5.207 4.8125-1.3984 1.1641-1.5039 1.4102-0.63672 2.6797 1.8047 2.6406 4.082 4.832 6.7305 6.6289 4.1523 2.8086 8.5898 5.0234 13.395 6.4883 0.32812 0.097656 0.60547 0.34766 1.043 0.60938-0.44922 0.26953-0.71875 0.42188-0.98047 0.58984-0.24609 0.16016-0.48828 0.33203-0.71094 0.48828 0.0625 0.34375 0.0625 0.59375 0.14844 0.80469 3.6055 8.7383 9.6055 15.742 16.215 22.289 2.2891 2.2695 4.6445 4.4688 7.1992 6.9219-1.0898 0.78906-2.0703 1.5-3.1406 2.2734 1.207 2.0859 3.0781 3.5508 4.9023 5.0234 7.5391 6.0625 16.082 10.32 25.117 14.012 0.011718 0.085937 0.019531 0.17187-0.41016 0.25-1.6055 0.042968-3.2109 0.085937-5.2461 0.039062-6.9336 0.046875-13.762 0.79688-20.609 2.6953 0.49219 2.0469-0.5 2.7891-2.1445 3.0977-0.76563 0.14453-1.5078 0.47266-2.2188 0.80469-1.9922 0.93359-3.8984 2-5.4062 3.5312 0.70312 2.9531 0.32812 3.9023-2.1992 5.0742-0.97266 0.45312-2.0859 0.62109-3.1523 0.82812-0.67969 0.12891-1.3906 0.085938-2.3867 0.13281 1.2109 2.1328-0.44922 3.5117-1.1367 5.4492-2.3438 3.5273-4.6914 7.0547-7.3047 10.77-0.875 1.3789-1.75 2.7578-2.5977 4.1992m385.21-212.57c0.17187-0.03125 0.34766-0.0625 0.51953-0.089844-0.042969-0.11719-0.085938-0.23047-0.12891-0.34375-0.10937 0.046875-0.21484 0.09375-0.39062 0.43359z" fill="#fff"/>
<path d="m120.9 358.12c-8.9844-3.4375-17.527-7.6953-25.066-13.758-1.8242-1.4688-3.6953-2.9375-4.9023-5.0234 1.0703-0.77344 2.0508-1.4844 3.1406-2.2734-2.5547-2.4531-4.9102-4.6523-7.1992-6.9219-6.6094-6.5469-12.605-13.551-16.215-22.289-0.085938-0.21094-0.085938-0.46094-0.14844-0.80469 0.22266-0.15234 0.46484-0.32812 0.71094-0.48828 0.26172-0.16797 0.53125-0.32031 0.98047-0.58984-0.4375-0.26172-0.71484-0.51172-1.0391-0.60938-4.8086-1.4648-9.2461-3.6797-13.395-6.4883-2.6523-1.7969-4.9297-3.9883-6.7344-6.6289-0.86719-1.2695-0.76172-1.5156 0.63672-2.6758-1.7461-1.6094-3.5273-3.1602-5.207-4.8164-4.8438-4.7656-9.793-9.4414-14.422-14.41-3.9258-4.2109-7.5469-8.7188-10.477-13.727-0.39844-0.68359-1.2188-1.2734-0.24609-2.1875 0.13672-0.13281-0.29297-0.98828-0.57812-1.4336-1.3672-2.1289-2.7734-4.2305-4.1367-6.5508 0.027344-0.21094 0.11719-0.30469 0.11719-0.30469 1.6445 0.70312 3.2812 1.4297 4.9336 2.1055 3.1758 1.3047 6.3633 2.5781 9.6484 4.1602-0.03125 0.875-0.16406 1.4531-0.27344 1.9336 1.332 1.1094 3.1562-1.2227 4.1367 1-0.29297 0.36719-0.57031 0.73437-0.87109 1.0859-1.3008 1.5273-1.2695 1.9062 0.027343 3.3984 0.82422 0.94531 1.5977 1.9453 2.3008 2.9883 1.0078 1.5 1.9336 3.0547 2.8867 4.5898 0.16406 0.26562 0.38672 0.53516 0.42969 0.82812 0.56641 3.7305 3.4219 6.1328 5.3281 9.0664 1.0234 1.5781 3.0859 1.0312 3.8203-0.69922 0.28125-0.66406 0.80078-1.4805 1.4062-1.7031 1.4766-0.54688 1.7812-1.6172 1.8945-2.9492 0.078125-0.93359 0.10156-1.9141 0.41016-2.7773 0.67578-1.8789 0.62109-3.6641-0.035156-5.5391-0.82812-2.3867-0.29297-3.125 2.1094-3.6406 0.96094-0.20312 1.8633-0.67969 2.7891-1.0312 2.9062 0.70703 5.3047 2.418 7.8047 3.9258 0.52734 0.32031 1.0586 0.64062 1.8477 1.1211v-2.4062c10.242-0.91406 20.305-0.86328 30.152 2.8125 0.125-0.84375 0.22656-1.5273 0.36328-2.4453 6.9219 0.1875 13.727 0.63672 20.387 4.5391-0.49219-1.6133-0.81641-2.7617-1.1914-3.8906-1.8711-5.625-3.8555-11.215-5.5898-16.883-0.84766-2.7812-1.25-5.7031-0.9375-8.7969 0.54688-0.18359 1.1133-0.37109 1.6484-0.54688-0.53906-4.0703-1.0742-8.1172-1.4141-12.34 1.5 0.38672 2.7461 0.34766 4.0859-0.22266 2.2461-0.96094 4.5156-1.4414 7.0859-1.0664 2.5312 0.37109 5.1875 0.41406 7.6719-0.83984 1.6016-0.80469 3.3281-1.375 5.0352-1.9375 1.9727-0.64844 3.9141-1.2969 5.2969-2.9766 1.0352-1.25 2.4297-1.6836 3.9883-1.7617 0.70703-0.035156 1.4141-0.10156 2.1211-0.17188 3.1172-0.31641 6.2383-1.0312 9.1602 0.98438 0.68359 0.47266 1.8516 0.58203 2.707 0.41016 2.3867-0.48438 4.7539-1.1289 7.082-1.8594 1.1055-0.34766 1.8555-0.18359 2.8242 0.47266 1.0625 0.72266 2.5195 1.5859 3.625 1.3906 2.5977-0.46875 4.9922-0.15234 7.4648 0.50781 0.75391 0.20312 1.8242 0.078125 2.4766-0.33203 2.8047-1.7539 5.5898-3.5664 8.2148-5.5781 1.2695-0.96875 2.4492-1.7148 4.0625-1.5312 1.5234 0.17578 2.8047-0.45703 3.9766-1.2773 0.70703-0.49219 1.2461-1.2188 1.8984-1.793 1.1875-1.043 2.1758-1.0547 3.3477-0.007813 0.82422 0.74219 1.6094 1.5312 2.3594 2.3516 1.3555 1.4805 2.9023 2.0117 4.9102 1.4375 1.0352-0.29688 2.207-0.30469 3.293-0.1875 2.3555 0.25 3.1914 1.3477 3.2617 3.7383 0.050781 1.7305 0.20703 3.457 0.36328 5.1797 0.070312 0.75781-0.22266 1.2109-0.91016 1.4492-0.44531 0.15625-0.89453 0.42188-1.3477 0.43359-1.5312 0.035156-2.207 1.0312-2.7734 2.2344-0.30469 0.64453-0.61328 1.3008-1.043 1.8633-0.76562 1-1.0039 2.0938-0.98828 3.332 0.015625 1.3359 0.058593 2.7188-0.24219 4-0.3125 1.3281 0.22656 1.8945 1.2969 2.4531 1.918-1.5078 3.7344-0.87109 5.5234 0.21094 0.67188 0.40625 1.3398 0.82812 1.9922 1.418-1.4844 2.1641-3.75 2.1094-5.707 2.3281-0.49219 0.91016-0.79297 1.7305-1.3125 2.375-1.3438 1.6602-1.3086 3.4492-0.69531 5.332 0.14453 0.44141 0.35156 0.86328 0.39844 0.98047-0.8125 1.5352-1.8984 2.7734-2.0781 4.1289-0.24219 1.8125 0.21484 3.7188 0.20312 5.6406-4.0625 0.92578-6.1289 3.3398-7.1797 7.2266-1.3555 5.0195-3.7539 9.6016-7.8242 13.078-4.2227 3.6055-9.2695 3.4492-13.27-0.42188-2.2656-2.1953-3.7656-4.8867-4.9062-7.793-0.46094-1.1797-0.82422-2.3945-1.2656-3.582-0.41797-1.125-1.125-1.9141-2.4414-1.8984-1.3867 0.015625-2.4648 0.54297-3.0391 1.8633-0.15625 0.36328-0.25781 0.75-0.35547 1.1328-1.2539 5.0195-1.4023 10.062 0.09375 15.031 2.3203 7.7227 7.2852 12.621 15.438 14.02 4.4297 0.76172 8.6992 0.12891 12.867-1.2734 2.5391-0.85547 4.9727-2.0273 7.543-3.0938 0.15625 0.17969 0.36328 0.40625 0.55859 0.64844 1.1914 1.4688 2.2031 3.1367 3.6016 4.3711 2.707 2.3867 5.9727 2.9062 9.3516 1.668 3.293-1.207 5.0469-3.7812 5.3633-7.2148 0.19922-2.1953 0.074219-4.418 0.25781-6.6211 0.45703 0.089843 0.80078 0.10938 1.043 0.27734 2.1484 1.4766 2.9102 3.8008 3.6836 6.1133 0.53125 1.5742-0.20703 2.8867-0.83984 4.2539-0.87109 1.875-0.44141 3.0664 1.3867 3.7969 2.3906 0.95312 4.8203 1.8047 7.3086 2.8477 1.1133 1.4844 2.0703 2.8711 2.1406 4.6289-1.2383 0.38672-2.457 0.78125-2.582 2.0273-0.125 1.2422-0.60938 1.9648-1.6094 2.6602-1.1875 0.82812-1.2344 1.75-0.019532 2.4609 1.582 0.92188 1.9727 2.3984 2.4297 3.8945 0.44531 1.4648 1.1523 2.5586 2.3945 3.6172 2.4141 2.0586 2.7461 3.875 0.35156 6.1953-0.17188 0.16797-0.33203 0.34375-0.50781 0.50391-1.0312 0.94141-1.6758 2.0234-1.7734 3.4922-0.066406 1.082-0.24219 2.2695-0.76172 3.1836-0.89844 1.5742-0.67578 2.9727-0.082031 4.5234 0.29688 0.77734 0.37109 1.6875 0.34375 2.5312-0.042969 1.332-0.37109 2.6562-0.36719 3.9844 0.011719 2.2969-1.1484 3.6875-3.125 4.582-0.5625 0.25781-1.2109 0.45703-1.6406 0.86719-2.4766 2.3672-5.6133 3.1133-8.8242 3.5-1.2344 0.14844-2.1914 0.51562-2.7773 1.4922-0.69922 1.1641-1.7305 1.793-2.875 2.3555-2.1602 1.0586-3.543 2.5859-3.1719 5.2031 0.16406 1.1641 0.36719 2.3359 0.35156 3.5-0.027344 1.9648-0.25781 3.9297-0.30859 5.8945-0.015624 0.48437 0.32031 0.98047 0.48047 1.4336 3.1016-0.41406 4.2773 0.61719 3.9297 3.3516-0.35156 0.070312-0.74609 0.10547-1.1055 0.23047-2.3164 0.8125-2.7969 2.1836-1.6484 4.3672 0.35547 0.67969 0.48828 1.4766 0.70313 2.2266 0.62109 2.1641 0.38672 4.5234 1.8906 6.5039 1.4688 1.9297 0.66406 3.9531-1.6602 4.7617-0.74219 0.25781-1.5234 0.41016-2.2852 0.61328-1.1172 0.30078-1.793 0.96875-1.7695 2.1953-3.5312-1.2344-6.2461 0.69922-9.0391 2.3359-7.1094 4.1602-14.398 7.9336-22.266 10.477-0.75 0.24219-1.5078 0.48438-2.2773 0.66406-0.75 0.17188-1.5195 0.25781-2.5273 0.42188 0.33203-0.95312 0.58984-1.7031 1.0039-2.8906-10.77 4.4219-21.359 6.7812-32.668 2.6836 0.34375-0.63281 0.58594-1.0195 0.77344-1.4297 0.15625-0.34375 0.25-0.71484 0.36328-1.0508-6.3398-0.71875-12.594-1.2695-18.797-2.1719-6.2695-0.90625-12.309-2.8125-17.965-5.0117-3.8516 1.9375-7.4805 3.875-11.207 5.5938-2.1484 0.98828-4.4531 1.6953-6.8906 1.4688-0.84375-0.078125-1.6719-0.30469-2.6484-0.48828 0.95703-2.1836 1.8359-4.1875 2.9219-6.6562-3.8711 0.17578-7.293 0.40234-10.715 0.47266-3.4883 0.074219-6.9805-0.007812-10.695-0.22656-0.52734-0.73828-0.82031-1.2812-1.1367-1.8047-1.0859-1.8047-2.6016-3.3828-2.957-5.5742 0 0 0.007813 0.066407 0.19141 0.054688 1.0156 0.089843 1.8555 0.19141 2.7852 0.30469 0.80469-1.668 0.3125-3.1758-0.10547-4.6836 2.3477-3.5273 4.6953-7.0508 7.3086-10.734 1.2422-0.46094 2.1953-0.92969 3.1875-1.0312 1.9609-0.19922 2.3359 0.15234 2.918 2.0977 0.375 1.2539 0.8125 1.5547 2.2422 1.293 1.5781-0.29297 2.9805-0.046874 4.1953 1.0391 0.94141 0.83594 0.91406 1.9609-0.074218 2.793-0.39844 0.33203-0.80078 0.66016-1.4023 1.1562 2.0664 1.8828 1.8516 3.6758 0.28516 5.6719-1.125 1.4297-0.34375 2.9141 1.5781 2.793 2.6836-0.17188 5.5195 0.007812 7.7891-2.1289 1.1055-1.043 2.4258-2.0234 4.2031-1.9102 2.7461 0.17188 5.1953-0.98438 7.9844-1.8398-0.97656-2.7812 0.82031-3.793 2.8516-4.6641 0.72656-0.31641 1.3867-0.80078 2.1328-1.0391 1.9023-0.61328 3.6406-1.9062 5.875-1.1367 0.92188 0.31641 2.0195-0.61719 2.1836-1.7344 0.28516-1.9688 0.31641-3.9492-0.67969-5.7852-0.67578-1.25-1.3906-2.4844-2.0312-3.7539-1.2227-2.4141-2.5664-4.7109-4.9453-6.2148-0.31641-0.19922-0.43359-0.71484-0.69922-1.1875 1.0234-0.20703 1.8359-0.37109 2.7578-0.55859-0.33203-1.8555-0.63281-3.543-0.9375-5.2305 1.6055-0.042969 3.2109-0.082032 5.1172-0.023438 0.48828 0.050782 0.67578 0 0.86328-0.054687-0.26562-0.18359-0.53516-0.36719-0.80469-0.55078m8.0938-121.2c-2.1797-0.375-4.3477-0.91016-6.543-1.0742-1.582-0.12109-3.293 0.26953-4.1289 1.8477-0.82031 1.5508 0.054688 3.0234 1.0195 4.1484 1.957 2.2773 3.9531 4.5664 6.2109 6.5273 6.5508 5.6719 13.711 10.508 21.121 14.984 0.58984 0.35156 1.1211 0.79688 1.7422 1.2461-0.35937 0.98047-0.62891 1.8008-0.94922 2.6016-2.3008 5.7344-4.7109 11.43-6.8789 17.211-1.2266 3.2734-1.8086 6.7305-1.5781 10.273 0.17188 2.5547 1.1211 4.6758 3.5391 5.7617 2.5195 1.1328 5.0039 0.81641 7.1289-0.98438 1.0742-0.91406 2.0312-2.0078 2.8789-3.1406 2.2578-3.0156 3.6719-6.4844 4.9102-10 3.4453-9.7969 6.5195-19.707 8.4883-29.922 0.96094-4.9766 1.8203-9.9883 1.6094-15.094-0.097656-2.3008-0.30078-4.6133-1.6133-6.6172-1.5273-2.3359-4.2148-2.6836-6.0195-0.625-0.96484 1.0977-1.7227 2.4844-2.2227 3.8672-0.82812 2.3047-1.3555 4.7148-2.0547 7.0703-0.32812 1.1016-0.76172 2.1719-1.2305 3.5-1.9492-0.98828-3.6289-1.8438-5.3086-2.6953-6.4375-3.2578-12.812-6.6523-20.121-8.8828z" fill="#fdbb49"/>
<path d="m213.04 398.41c-0.20703-1.2852 0.46484-1.9492 1.5859-2.2539 0.76172-0.20312 1.5391-0.35547 2.2812-0.61328 2.3281-0.80469 3.1289-2.832 1.6602-4.7617-1.5039-1.9805-1.2656-4.3398-1.8867-6.5039-0.21875-0.75-0.35156-1.5469-0.70703-2.2266-1.1445-2.1797-0.66406-3.5547 1.6484-4.3672 0.36328-0.125 0.75781-0.16016 1.1055-0.23047 0.35156-2.7344-0.82812-3.7656-3.9297-3.3516-0.16016-0.45312-0.49219-0.94922-0.48047-1.4336 0.054688-1.9648 0.28125-3.9297 0.30859-5.8945 0.015625-1.1641-0.18359-2.3359-0.34766-3.5-0.37109-2.6172 1.0078-4.1445 3.1719-5.2031 1.1406-0.55859 2.1758-1.1914 2.8711-2.3516 0.58984-0.98047 1.543-1.3477 2.7773-1.4961 3.2148-0.38672 6.3477-1.1328 8.8242-3.4961 0.43359-0.41406 1.0781-0.61328 1.6445-0.86719 1.9727-0.89844 3.1328-2.2891 3.125-4.5859-0.007812-1.3281 0.32031-2.6523 0.36328-3.9844 0.027344-0.84375-0.046875-1.7539-0.34375-2.5312-0.58984-1.5508-0.8125-2.9492 0.082031-4.5234 0.51953-0.91406 0.69531-2.1016 0.76562-3.1836 0.09375-1.4648 0.73828-2.5508 1.7734-3.4922 0.17578-0.16016 0.33594-0.33594 0.50391-0.5 2.3945-2.3242 2.0664-4.1406-0.34766-6.1953-1.2422-1.0625-1.9531-2.1562-2.3984-3.6211-0.45312-1.4961-0.84766-2.9688-2.4297-3.8945-1.2109-0.71094-1.1641-1.6328 0.019532-2.4609 1-0.69531 1.4844-1.418 1.6094-2.6602 0.125-1.2461 1.3438-1.6406 2.7266-1.957 1.3633 0.81641 2.0547 2.1328 3.3359 2.1367 1.2969-1.6562 2.4805-3.1641 3.6602-4.6758 0.23828-0.30859 0.46875-0.625 0.68359-0.95312 0.625-0.9375 1.418-1.5547 2.5039-2.0039 0.95312-0.39844 1.8789-1.1719 2.4883-2.0156 0.60156-0.84375 0.79297-1.9844 1.3164-3.0469 0.35547-0.054687 0.56641-0.058593 0.84766 0.089844 0.63672 1.1016 1.168 2.0703 1.7734 2.9961 0.57422 0.87109 1.543 0.97656 2.1562 0.19531 0.53125-0.67578 1-1.4297 0.52344-2.3945-0.3125-0.62891-0.49609-1.3242-0.60938-2.0938 2.4414-1.0977 4.7539-2.0898 7.1758-3.125 0.33203 0.53125 0.66016 1.0547 0.98828 1.5781 1.0703 1.6992 2.3867 3.1562 4.082 4.2617 5.6094 3.6602 13.145 0.39062 13.766-6.1133 0.26172-2.7461 0.14062-5.5625-0.14063-8.3125-0.51953-5.1172-1.4648-10.199-1.8789-15.32-0.23828-2.9336-1.1133-5.3789-2.9062-7.4883 2.4688-0.87891 2.7617-1.3711 2.3047-3.6172-0.64453-3.1602 0.27734-5.0195 3.1055-6.5781 3.1328-1.7266 5.8438-3.7539 5.8633-7.8945 0.007812-1.5938 1.0977-2.0664 2.6562-1.4883 1.8086 0.66797 1.8672 0.65234 2.9453-0.78516 0.28516-0.37891 0.53125-0.79297 0.85938-1.1289 0.99219-1.0156 2.2266-1.8164 3.5977-1.1719 1.3672 0.64062 2.4492 1.7344 2.2812 3.543-0.09375 1.0078-0.015626 2.0352-0.015626 2.8867-1.1797 0.69141-2.082 1.3477-3.0859 1.7734-0.75391 0.31641-1.7266 0.64453-2.4375 0.42969-1.6641-0.50781-2.9805 0.17578-4.2656 0.89844-1.4688 0.82812-1.9414 2.5352-1.3672 4.1367 0.23828 0.66797 0.48047 1.332 0.625 2.1289-1.3125 1.0977-1.6406 2.4766-1.8164 3.918-0.75781 6.207-1.6055 12.406-2.207 18.629-0.21094 2.1758-0.09375 4.4727 0.38672 6.5977 0.73047 3.2188 3.3906 4.7734 6.6562 4.375 1.8789-0.23047 3.1992-1.25 4.1602-2.8359 2.1836-3.5938 4.3086-7.2188 6.6055-10.738 1.6836-2.582 3.5664-5.0469 5.4336-7.5039 0.69531-0.91797 1.5156-1.8125 3.1992-1.8359 0.011719 2.3008 0.042969 4.4844 0.039063 6.6719-0.019532 5.5508-0.13281 11.105-0.050782 16.652 0.054688 3.4883 2.5625 6.2305 5.9961 6.5938 1.2852 0.13672 2.6328-0.33203 3.9727-0.30469 0.035157 0.77344 0.015626 1.332 0.066407 1.8867 0.33984 3.8281 2.082 6.7578 5.5938 8.4766 1.6836 0.82422 1.7617 0.79297 0.98828 2.6133-0.61719 1.4453-0.6875 2.9141 0.33984 4.0312 1.8828 2.0547 3.2266 4.7227 6.332 5.4961 0.78125 0.19531 1.7031 1.3203 1.8906 2.1641 0.71875 3.2695-1.375 5.7031-4.7383 5.7969-1.9922 0.058594-2.2344 0.22656-2.9141 2.1016-0.16016 0.44531-0.28906 0.90234-0.44922 1.3516-0.79688 2.2266-1.4648 4.4727-3.0742 6.3594-1.1562 1.3633-1.4297 3.1133-0.90234 4.9414 0.49219 1.7266 0.43359 3.3867-0.61719 5.0078-0.40234 0.62891-0.50781 1.6836-0.30078 2.418 0.35938 1.2695 1.1133 2.4219 1.6211 3.6562 0.44531 1.0859 1.0273 0.875 1.7891 0.45703-1.043-2.2109-0.89844-6.0664 0.57813-7.7695 0.99609-1.1445 2.3711-2.0977 3.7617-2.7266 1.2969-0.58203 2.0273 0.875 2.9766 1.5273 1.7969 1.2383 3.6836 1.8242 5.7539 0.52344 0.56641-0.35547 1.2539-0.50781 1.8477-0.73828 0.29297 0.39062 0.44922 0.56641 0.57031 0.76562 1.207 1.9336 1.5156 2.0234 3.5859 1.1055 0.42188-0.1875 0.91406-0.42969 1.3359-0.375 2.1797 0.28906 4.4688 0.34766 6.4805 1.1133 1.6953 0.64844 3.2344 1.9844 4.543 3.3125 1.9727 1.9961 4.1133 3.6914 6.5977 4.9688 0.71094 0.36328 1.3711 0.75 1.5117 1.8281-0.64453 0.042969-1.2617 0.27734-1.6719 0.082031-1.3672-0.65234-2.3047-0.10156-3.0664 0.92969-1.5039 2.0273-3.2812 2.6094-5.5352 1.2344-0.089844-0.054688-0.28906 0.070312-0.4375 0.11328-0.65234 1.3789-0.65234 1.3789-0.58984 3.6133 0.058594 2.0078 0.24609 2.1016 2.1367 2.3242 1.4727 0.17578 2.9219 0.60156 4.3672 0.95312 0.8125 0.19922 1.2812 0.75 0.96875 1.5859-0.46875 1.25 0.25391 1.7773 1.1992 2.1445 1.6172 0.63672 3.2461 1.25 4.9062 1.7734 0.47266 0.14844 1.3594 0.14453 1.5312-0.12891 0.71484-1.1172 1.3164-2.3281 1.7656-3.5742 0.17188-0.47656-0.085938-1.1875-0.32422-1.7109-0.31641-0.69141-0.55469-1.2891 0.16797-1.9805 0.26953 0.070313 0.58984 0.089844 0.84375 0.23438 2.9375 1.6523 4.7656 4.2461 5.4961 7.4219 0.66797 2.8984 0.95703 5.9023 1.1914 8.8789 0.21094 2.5977 0.14453 5.2188-0.82031 7.7305-0.16016 0.42188-0.070313 0.94141-0.09375 1.4141-3.418 1.418-6.8125 2.8906-10.258 4.2383-2.207 0.86719-4.4688 1.6133-6.7383 2.3047-2.1875 0.66406-4.418 1.1875-6.6406 1.7734-0.65625 1.5391 0.64844 2.3359 1.25 3.543-2.25 1.3672-4.793 1.8359-7.2852 2.4219-8.8711 2.0781-17.883 2.1602-26.918 1.9023-0.82812-0.023437-1.6602-0.003906-2.5234 0.14062 7.4062 3.7578 14.738 7.5586 21.004 12.973-0.625 2.9375-0.50781 2.8398 1.4688 5.2305 1.3867 1.6797 2.3945 3.6719 3.4297 5.3008-0.19922 0.55078-0.20703 0.74219-0.30859 0.83594-2.1328 2.0156-2.1406 4.1211 0.10547 6 0.96094 0.80078 2.1016 1.3867 3.3086 2.168-2.0859 1.9258-1.625 4.293-1.0078 6.6914 1.3203 5.1562 3.3398 10.051 5.5742 14.863 0.32812 0.70703 0.64062 1.4219 1.1758 2.6055-5.0273-0.94922-9.2148-2.9102-13.391-4.8164-4.2383-1.9297-8.3555-4.1211-12.809-6.3359-0.17969 1.0781-0.33984 2.043-0.52734 3.1953-0.48828 0-1.0039 0-1.6484-0.30469-0.89844-2.3711-1.543-4.4961-2.5-6.4688-0.39844-0.82422-1.3672-1.5781-2.2461-1.9219-1.6172-0.62109-2.7383-1.6914-3.25-3.2148-0.37891-1.1211-1.0703-1.6445-2.0078-2.1445-2.4258-1.3008-5.1406-2.1055-7.0508-4.2891-0.66016-0.76172-1.5664-0.68359-2.3359-0.015625-0.48047 0.41406-0.88281 0.91797-1.375 1.3125-2.1602 1.7188-3.9961 1.3398-5.3477-1.0625-0.0625-0.10547-0.26953-0.13281-0.49609-0.23438-1.4219 0.48828-1.9531 1.6523-2.0664 3.0703-0.0625 0.78906 0.12891 1.625-0.0625 2.3672-0.18359 0.69922-0.58984 1.7266-1.1172 1.8828-2.125 0.62891-2.4336 2.2578-2.6445 4.0352-3.1328-0.75391-6.332-1.3086-9.3789-2.3164-4.6328-1.5312-9.1562-3.3789-13.73-5.0859-0.28516-0.10547-0.59375-0.14062-1.0547-0.24609-0.097656 0.92969-0.18359 1.7539-0.29688 2.8125-5-0.10938-9.5508-1.6133-13.977-4.3242-0.10156-2.1602 1.0781-3.0898 2.6719-3.6484 2.0078-0.70312 2.1562-1.0781 1.3828-3.1055-0.62109-1.6172-1.2617-3.2422-1.6836-4.918-0.60547-2.4102 0.0625-3.4219 2.3242-4.4648 1.5742-0.73047 3.125-1.5508 4.5625-2.5195 1.8594-1.2539 2.4453-3.2266 2.4922-5.3789 0.015625-0.80859-0.375-1.5234-1.2148-1.4531-1.332 0.10938-2.5234-0.74219-3.957-0.22266-1.2734 0.46094-1.8164-0.14062-1.9414-1.5898-0.070313-0.76562-0.09375-1.5352-0.16016-2.6719-1.2109 0.22266-2.2148 0.28516-3.1289 0.60156-2.0273 0.70312-2.1016 0.67578-3.2383-1.0547-0.44922-0.6875-1.0703-1.4648-1.7891-1.7344-1.4609-0.54297-2.9688-0.88672-3.6328-2.4102-1.5039 0.20312-2.3477 0.96094-2.707 2.2148-0.44531 1.5625 1.9531 6.1055 3.5 6.6172 0.33594 0.10938 0.78125 0.046875 1.1367-0.070312 1.625-0.53516 2.9766 0.25 4.2109 1.0391 0.54297 0.34766 0.83203 1.2656 1.0039 1.9805 0.30859 1.2891-0.72656 1.9805-1.4688 2.793-1.2383 1.3516-1.2148 1.957 0.10547 3.3984 0.54297-0.23828 1.1016-0.53906 1.6953-0.72266 0.61719-0.19141 1.3281-0.30469 1.5195 0.57422 0.17578 0.80859-0.17969 1.4062-1.0234 1.5898-0.37891 0.082031-0.78516 0.050781-1.1836 0.070313-2.3516 0.11719-2.3633 0.12891-2.4688 2.4414-0.039063 0.83594 0.1875 1.7891-1.1992 2.2773-0.42188-0.54297-0.88672-1.1289-1.3438-1.7227-0.38281-0.49219-0.6875-1.0703-1.1484-1.4688-0.61328-0.53125-2.6133-3.4375-2.8477-4.1641-1.1445-3.6055-2.2383-7.2344-3.543-10.781-0.70313-1.9102-1.7109-3.7305-2.7656-5.4844-0.39844-0.66406-1.2773-1.3867-2-1.4531-3.1562-0.29688-6.3672-0.50391-8.9375 1.9883-0.26953 0.26562-0.60547 0.46484-0.98047 0.74609-0.375-0.28516-0.71875-0.48047-0.97656-0.75781-1.0195-1.1094-2.2344-1.5781-3.7734-1.6836-1.2891-0.082032-2.5273-0.77344-3.8203-1.0234-0.78125-0.14844-2.1289-0.26953-2.3594 0.11719-1 1.6602-2.4492 1.4961-3.9531 1.4141 0.11328-2.0508 0.11328-2.0508-2.0703-2.5039z" fill="#fcad48"/>
<path d="m239.93 133.69c3.1484-7.1016 7.043-13.707 12.566-19.367 1.2695 1.9805 1.8516 4.3242 4.6055 4.8711 4.1328-10.449 8.9141-20.531 17.09-28.746 0.59375 1.0078 1.1211 1.9023 1.8672 3.1562 0.83203-1.332 1.5039-2.3516 2.1289-3.4023 1.6094-2.707 3.2031-5.4258 5.0781-8.1367 0.83984 1.2188 1.2266 2.5742 2.0234 3.6211 1.2578 1.6562 1.7461 3.4453 1.9219 5.457 0.10156 1.1445 0.31641 2.4531 0.95703 3.3438 2.5781 3.5859 5.4297 6.9766 8 10.562 1.0312 1.4414 1.9609 3.1445 2.2852 4.8477 0.34766 1.8281 0.90234 3.4961 1.6719 5.1484 1.3594 2.9336 3.2188 5.6445 3.8633 8.9102 0.12109 0.625 0.93359 1.2266 1.5664 1.6055 0.66016 0.39453 1.4883 0.51562 2.2461 0.74609 1.9883 0.60547 2.2422 0.52344 2.8867-1.5195 1.1484-3.6328 3.9453-6.2578 5.7383-9.4922 0.28125-0.50391 0.94531-0.82422 1.4766-1.1562 2.1875-1.3711 3.9258-3.168 5.3164-5.3359 1.4414-2.2539 3.5664-3.5117 6.1484-4.0508 1.4961 0.70703 2.125-1.0156 3.6133-1.2188 2.2031 10.84 1.4922 21.59-0.89453 32.395 2.6914 0.64453 4.4648-1.2969 6.625-2.2148 1.4219 2.9414 1.2305 5.9688 1.3477 8.9336 0.36328 9.2188-0.75 18.297-2.6797 27.293-0.078125 0.375-0.10156 0.75781-0.15625 1.168 1.3711 0.8125 2.6797 1.0547 4.0273 0.10547 0.73438 1.5391 0.67969 3.0977 0.48438 4.6836-0.87109 7.1055-3.5352 13.555-7.1641 19.652-0.31641 0.52734-0.58203 1.0859-0.9375 1.75 2.0742 1.082 3.293-0.53516 4.875-1.4062 0.18359 3.1602-0.48437 5.9727-1.0664 8.7969-1.4844 7.1836-4.5508 13.77-7.9453 20.434-1.4727-0.47656-2.7734-1.2891-2.7188-2.5703 0.085937-1.8906-0.84766-3.1094-2.0664-4.4531 1.1406-0.91406 0.85547-1.9688 0.41406-3.0234-0.64453-1.5391-0.56641-2.9258 0.73438-4.1211 0.13281-0.125 0.10156-0.42578 0.125-0.53125-1.2109-0.89062-2.6328-1.5156-3.4219-2.5977-2.9453-4.0469-6.957-5.0547-11.609-4.5664-0.78125 0.082032-1.5586 0.03125-1.7734-0.78516-0.73828-2.7656-1.4297-5.5664 0.55469-8.1562 1.3633-1.7852 0.625-3.7969 0.57031-5.7148-0.007813-0.30078-0.64844-0.625-1.0391-0.87109-3.1055-1.957-6.043-0.90625-9.0117 0.44141-1.7031 0.76953-3.1406 1.5898-2.6328 3.9531-0.94922-0.48828-1.668-0.97266-2.457-1.2266-0.8125-0.26172-1.7188-0.21875-2.5391-0.45703-0.53516-0.15234-1.3828-0.52734-1.4141-0.86328-0.085938-0.95703 0.79297-0.98438 1.5195-1.0039 0.47656-0.011719 0.95312-0.023438 1.4297 0 1.0664 0.054687 1.7266-0.27344 2.1445-1.4062 0.27344-0.73047 1.0469-1.3789 1.75-1.8281 1.4844-0.95703 1.8242-1.2773 1.2773-2.7461-1.082-2.8867-2.2578-5.7422-3.543-8.543-0.71875-1.5586-1.7656-1.5469-2.9141-0.3125-0.68359 0.73047-1.4609 1.4492-2.3359 1.9102-2.0352 1.0703-2.8789 0.72656-4.0664-1.2578-0.60547-1.0156-1.2656-2.0078-1.9688-2.957-0.63281-0.85547-1.4297-1.1797-2.4727-0.55469-1.1602 0.69922-2.3789 1.3086-3.6758 2.0156-1.7852-1.7109-2.4102-4.1953-3.5898-6.2188 2.3164-3.3047 5.6797-4.2188 8.9883-5.0195-0.0625-1.4609-0.89844-1.9297-1.7734-2.3125-1.4492-0.62891-2.9102-1.2422-4.3945-1.7812-1.7656-0.64062-3.7461-0.89453-5.3203-1.8398-4.9453-2.9727-9.7578-6.1719-14.586-9.332-0.59375-0.38672-0.99219-1.0703-1.707-1.8672 3.9414-1.0156 7.2109-1.4531 10.035 1.668 2.168 2.3984 3.832 2.0625 5.5781-0.98828-1.1992 0.10156-2.2734 0.19531-3.6133 0.3125-0.30078-0.91406-0.56641-1.8906-0.95703-2.8164-0.36328-0.85938-0.73438-1.7656-1.3281-2.4609-1.6406-1.9219-3.3477-3.7969-5.1289-5.5938-1.2461-1.2578-2.6914-1.2188-3.9844-0.007812-1.3281 1.2461-2.6211 2.5391-3.8711 3.8672-1.1172 1.1836-1.0703 1.7266 0.042969 3.0508 0.34375 0.41016 0.67578 0.83203 1.082 1.332-1.0469 1.1406-1.8945 2.2344-1.0742 3.8359 0.34766 0.68359-0.054687 1.3555-0.75781 1.8008-1.7695 1.1133-2.5195 2.793-2.4609 4.832 0.027344 1.1016-0.57031 1.6094-1.5039 1.8047-1.457 0.30078-2.9297 0.53125-4.6406 0.83594-0.25781-0.35547-0.80859-0.80078-0.9375-1.3477-0.375-1.582-1.4453-2.375-2.8281-2.9375-0.51172-0.21094-0.98828-0.50391-1.4883-0.74609-1.4023-0.67969-1.9453-2.0039-1.7969-3.3359 0.14844-1.3555 1.1016-2.4297 2.5391-2.8477 0.68359-0.19922 1.3906-0.31641 2.0547-0.55859 3.0469-1.1094 3.9648-4.0352 2.0664-6.6328-0.97656-1.3359-2.043-2.6055-3.0703-3.9062z" fill="#fc7e46"/>
<path d="m291.95 253c-0.24219-0.66797-0.48047-1.332-0.71875-2-0.57422-1.6016-0.10547-3.3086 1.3672-4.1367 1.2852-0.72266 2.6016-1.4062 4.2656-0.89844 0.71094 0.21875 1.6836-0.10938 2.4375-0.42969 1.0039-0.42578 1.9062-1.082 3.082-1.7734 0-0.85156-0.074219-1.875 0.019531-2.8867 0.16406-1.8086-0.91406-2.9023-2.2812-3.543-1.3711-0.64453-2.6094 0.15625-3.6016 1.1758-0.32422 0.33594-0.57422 0.75-0.85547 1.1289-1.0781 1.4336-1.1367 1.4492-2.9492 0.78125-1.5586-0.57422-2.6484-0.10156-2.6562 1.4883-0.019531 4.1445-2.7266 6.168-5.8594 7.8945-2.8281 1.5586-3.75 3.418-3.1055 6.582 0.45312 2.2422 0.16406 2.7383-2.4609 3.5508-0.85156-0.41406-1.3594-0.80078-1.9023-1.125-5.0234-3.0039-13.012-2.4648-14.797 5.5977-0.53906 2.4297-1.7617 4.7461-2.918 6.9844-1.4648 2.8398-3.4414 5.3281-6.2031 7.0664-3.8203 2.4023-8.0781 2.082-11.367-0.98828-1.2578-1.1758-2.4805-2.5195-3.2852-4.0195-1.3047-2.4219-2.2656-5.0352-3.3477-7.5742-0.71875-1.6875-1.3125-2.1641-2.7539-2.1133-1.4766 0.054687-2.4297 0.78516-2.9688 2.2969-0.18359 0.51953-0.35156 1.043-0.74609 1.5664-2.2773-0.16016-4.3398-0.32031-6.4336-0.66797-0.28516-4.2031-2.3828-6.9414-5.9258-8.6719-2.0391-0.99609-4.2266-1.1992-6.4531-1.1875-0.15625-1.8672-0.61328-3.7734-0.37109-5.5859 0.17969-1.3555 1.2656-2.5898 2.0781-4.1289-0.046876-0.11719-0.25391-0.53906-0.39453-0.98047-0.61328-1.8828-0.65234-3.668 0.69141-5.332 0.51953-0.64453 0.82031-1.4648 1.3125-2.375 1.957-0.21484 4.2227-0.16406 5.8594-2.3945 2.4414-0.98828 4.2812-2.2148 5.0977-4.7617-0.40625-0.65234-0.92188-1.3555-1.2891-2.125-0.29688-0.61328-0.55859-1.3125-0.57422-1.9766-0.027343-1.3828 0.58984-1.8398 1.9531-1.6172 0.61719 0.10156 1.2305 0.35156 1.8398 0.33594 1.1094-0.027344 1.5547-0.73438 1.1953-1.7539-0.12891-0.37109-0.34766-0.71094-0.54297-1.0547-1.0039-1.7812-0.91016-2.4297 0.92578-3.3672 1.1523-0.59375 1.8281-1.4297 2.3164-2.5547 0.3125-0.72266 0.72656-1.4062 1.0547-2.125 1.1562-2.5625 3.0078-4.4141 5.5703-5.5703 0.86328-0.39453 1.7344-0.79297 2.5391-1.293 1.2305-0.76562 1.5156-1.4805 0.88672-2.7969-0.72656-1.5312-0.62891-2.9727-0.31641-4.5938 0.36719-1.9062 0.51562-3.9219-0.67969-5.6328-2.6094-0.84766-3.1328 2.168-5.168 2.6172-0.33203-0.51953-0.77344-0.99609-0.97656-1.5586-0.64844-1.8047-1.957-2.2578-3.7383-2.2148-1.4805 0.039063-2.9688-0.24219-4.457-0.33594-0.45703-0.027344-1.0703-0.085937-1.3555 0.16406-0.97266 0.85156-1.8242 0.50391-2.832 0.089843-2.0078-0.83594-3.1055-0.52344-4.4023 1.2812-1.0547 1.4648-1.9062 3.0781-2.9336 4.5703-0.54297 0.78906-0.81641 1.9844-2.168 1.875-0.027344-0.51562-0.054688-1.0312 0.035156-1.8164 0.20312-0.40625 0.23438-0.55078 0.21875-0.70703-0.074218-4.375 1.1445-8.5703 1.7422-12.852 0.625-4.4375 2.3203-8.5117 3.8359-12.648 0.50781-1.3906 1.4023-2.6406 2.2461-4.1875 0.55078 0.84375 0.89844 1.6094 1.4531 2.1641 0.5 0.50391 1.2305 0.77734 2.293 1.4102 0-1.7773 0-3.0234 0.21484-4.4805 1.6133-0.26172 2.5664 0.53906 3.5 1.4414 2.3672 2.2852 5.0195 2.8555 8.0117 1.2539 0.41797-0.22266 0.88281-0.34766 1.3164-0.53906 1.4727-0.64844 1.7305-1.1602 1.418-2.7656-0.59375-3.0312 1.6719-6.0586 5.0859-6.5078 0.26562 0.73828 0.57812 1.5195 0.82422 2.3242 0.25781 0.82812 0.33594 1.7227 0.68359 2.5 0.75391 1.668 1.5781 3.2852 0.30078 5.1719 1.8008 0.375 3.3711 0.70313 5.1172 1.0664-0.3125-1.2773-0.56641-2.3047-0.81641-3.332 0.12891-0.11719 0.25391-0.23047 0.38281-0.34766 0.6875 0.42969 1.3711 0.86328 2.0625 1.2852 2.0547 1.25 3.7227 3.2812 6.4922 3.0977 0.49219-0.035156 1.0469 0.35156 1.5156 0.63672 1.8125 1.1172 3.5273 2.418 5.4258 3.3633 1.5938 0.79297 2.7461 1.8164 3.3516 3.4766 0.40234 1.1133 0.89453 2.1992 1.2422 3.3281 0.59375 1.9219 1.4414 3.6953 2.8945 5.1016 0.85156 0.82031 0.94531 1.7109 0.76953 2.8086-0.21484 1.3164-0.375 2.6641-0.32031 3.9922 0.066406 1.6875 1.3125 3.2461 2.9141 3.2812 2.6914 0.058594 5.4609 1.4336 8.1055-0.28516 0.21875-0.14062 0.60547-0.019531 1.0625-0.019531 0.24609 0.78125 0.58203 1.5078 0.69922 2.2656 0.34375 2.2891 1.3359 4.2695 3.1094 5.6914 2.1875 1.7539 4.293 3.5078 5.3047 6.2383 0.074218 0.20703 0.32031 0.34766 0.46094 0.53516 2.3555 3.1641 4.7578 6.3008 7.0234 9.5234 0.50781 0.71875 0.77734 1.7734 0.75391 2.6602-0.050781 1.8125 0.41016 3.3945 1.2383 4.9883 1.0859 2.0898 2.1953 4.1836 2.2344 6.6797 0.007813 0.55078 0.84375 1.2656 1.4648 1.6016 2.5703 1.3867 5.2266 2.625 7.8125 3.9844 1.8594 0.98047 2.9688 2.6172 3.4336 4.625 0.30078 1.2969 0.36719 2.6445 0.33594 4.0039-3.3477 0.039063-6.0312 1.2773-8.4375 3.2031-4.8359 3.8594-8.4648 8.6992-11.434 14.078-0.35938 0.65234-0.74609 1.2891-1.3789 2.3711-0.1875-4.5625-0.27734-8.5742-0.54297-12.574-0.125-1.8711-0.58984-3.7148-0.89453-5.7461-0.17578-0.53125-0.35547-0.89062-0.53906-1.2461-0.28906 0.25-0.57813 0.5-1.0508 0.78125-0.68359 0.09375-1.1797 0.15625-1.6758 0.21875m-0.48438-36.988c-1.293-1.1562-2.5664-2.332-3.8789-3.4609-1.4648-1.2617-2.6367-2.6992-3.2812-4.5625-1.1211-3.2383-1.1484-3.2266-4.4727-3.2188-0.55469 0-1.1133-0.042969-1.6602 0.019531-1.1484 0.12891-1.7539 0.70703-1.4102 1.6992 0.8125 2.3672 0.82812 5.082 2.6289 7.0312 2.6758 2.9062 5.4609 5.7109 8.2148 8.543 0.21094 0.21484 0.53125 0.33984 0.82031 0.46875 1.8125 0.81641 3.3516 0.042969 4.1211-1.793 0.73438-1.7539-0.125-3.0586-1.082-4.7266z" fill="#fca245"/>
<path d="m381.59 386.67c-0.14453-0.45703-0.23828-0.97656-0.074219-1.3984 0.96484-2.5117 1.0273-5.1328 0.82031-7.7305-0.23828-2.9766-0.52344-5.9805-1.1914-8.8789-0.73047-3.1758-2.5625-5.7695-5.4961-7.4219-0.25391-0.14453-0.57812-0.16406-0.84375-0.23438-0.72266 0.69141-0.48828 1.2891-0.16797 1.9844 0.23828 0.51953 0.49219 1.2305 0.32422 1.707-0.44922 1.2461-1.0508 2.4609-1.7656 3.5742-0.17188 0.27344-1.0625 0.27734-1.5352 0.12891-1.6562-0.51953-3.2852-1.1367-4.9062-1.7695-0.94531-0.37109-1.6641-0.89844-1.1953-2.1484 0.3125-0.83594-0.15625-1.3867-0.96875-1.582-1.4492-0.35547-2.8945-0.78125-4.3672-0.95703-1.8906-0.22266-2.0781-0.31641-2.1367-2.3242-0.0625-2.2305-0.0625-2.2305 0.58984-3.6133 0.14844-0.039062 0.34766-0.16406 0.4375-0.10938 2.25 1.3711 4.0312 0.78906 5.5352-1.2383 0.76172-1.0312 1.6953-1.582 3.0625-0.92969 0.41406 0.19531 1.0312-0.039062 1.6719-0.082031-0.14062-1.0781-0.79688-1.4648-1.5078-1.8281-2.4844-1.2734-4.625-2.9688-6.5977-4.9688-1.3125-1.3242-2.8477-2.6641-4.5469-3.3125-2.0117-0.76562-4.3008-0.82422-6.4805-1.1133-0.42188-0.054687-0.91016 0.1875-1.332 0.375-2.0703 0.91797-2.3789 0.82812-3.5859-1.1055-0.12109-0.19922-0.27734-0.375-0.57031-0.76562-0.59375 0.23047-1.2852 0.38281-1.8477 0.73828-2.0742 1.3008-3.957 0.71875-5.7539-0.52344-0.94922-0.65234-1.6797-2.1094-2.9766-1.5273-1.3945 0.62891-2.7695 1.582-3.7617 2.7305-1.4805 1.7031-1.625 5.5547-0.57812 7.7695-0.76172 0.41406-1.3438 0.625-1.7891-0.46094-0.50781-1.2344-1.2617-2.3867-1.6211-3.6562-0.20703-0.73438-0.10156-1.7891 0.30078-2.418 1.0469-1.6211 1.1094-3.2812 0.61328-5.0078-0.52344-1.8281-0.25-3.5781 0.90625-4.9375 1.6094-1.8906 2.2734-4.1367 3.0742-6.3633 0.16016-0.44531 0.28906-0.90625 0.44922-1.3516 0.67969-1.8711 0.92188-2.043 2.9102-2.0977 3.3633-0.09375 5.4609-2.5312 4.7383-5.8008-0.1875-0.84375-1.1055-1.9648-1.8867-2.1641-3.1055-0.77344-4.4492-3.4414-6.332-5.4961-1.0273-1.1172-0.95703-2.5859-0.33984-4.0312 0.77344-1.8203 0.69141-1.7891-0.98828-2.6133-3.5117-1.7188-5.2539-4.6484-5.5938-8.4766-0.050781-0.55469-0.03125-1.1094 0.035157-1.9961 0.95312-1.3398 2.0547-2.2305 2.6484-3.3828 1.4453-2.8086 2.7852-5.6836 3.9258-8.6289 2.0664-5.3281 4.3789-10.52 7.625-15.25 0.28125-0.41016 0.65625-0.75 1.2734-1.4492 0.09375 0.875 0.16406 1.3125 0.18359 1.7539 0.17969 4.1133 0.27344 8.2305 0.54688 12.336 0.21094 3.1523 0.51953 6.3086 1.0039 9.4336 0.43359 2.8047 2.1328 4.8477 4.9062 5.5508 6.625 1.6797 12.453-3.1133 12.695-8.168 0.14453-2.9219 0.30078-5.8438 0.61328-8.7422 1.3359 0.91406 2.4766 1.8516 3.6914 2.6836 0.88281 0.60156 1.8594 1.0625 2.8125 1.8086 0.25391 4.0156 0.48828 7.8086 0.52344 11.629-1.5469 0.64453-2.8867 1.2852-4.2461 1.8867-0.83984 0.375-1.207 1.0195-1.0859 1.8906 0.11719 0.84766 0.40234 1.6758 0.52344 2.5234 0.14453 0.99219 0.47656 2.0859 0.21484 2.9844-0.57813 1.9805-0.15234 3.7344 0.65625 5.4844 1.1055 2.3789 2.168 2.6602 4.0938 0.92578 0.96484-0.875 1.8359-1.082 2.9727-0.46484 0.47266 0.25781 1.0234 0.44141 1.5547 0.50391 2.3242 0.27734 3.1797-0.79297 2.4922-3.0469-0.11719-0.375-0.15625-0.80859-0.36719-1.1172-0.85547-1.2344-0.78125-2.5039-0.070312-3.8164 2.2031 0.63281 4.125 0.26563 6.0273-0.375 0.9375 1.8945 2.3047 3.0625 4.2305 3.5586 2.4961 0.64453 4.3398 2.3828 6.3281 3.8633 0.25781 0.19141 0.27734 0.69531 0.41016 1.0547-2.6562 2.4688-5.2617 4.9922-7.9766 7.3945-2.3672 2.0898-4.8594 4.0352-7.2812 6.0625-0.28516 0.23828-0.48438 0.58203-0.80469 0.98047 7.2891-0.49219 13.863 1.293 20.262 4.6016-0.23828 0.73047-0.46484 1.4297-0.72656 2.2383 10.516 0.21094 20.055 3.7188 29.758 7.2383-0.42188 0.69141-0.78125 1.1914-1.0391 1.7422-0.058594 0.12891 0.22656 0.42187 0.57812 0.80078 2.3516 2.3867 4.6992 4.4258 6.0234 7.3203 0.20703 0.45312 0.79297 0.74219 1.2266 1.0781 1.4414 1.1094 2.5 2.4375 2.3164 4.3828-0.15234 1.5938 0.71094 2.5195 1.9609 3.2188 0.54297 0.30078 1.125 0.52734 1.7852 0.82812-0.82812 2.1875-0.91016 4.2891 0.089844 6.4336 0.63281 1.3477 0.97266 2.832 1.4453 4.2578-2.1758 0.26172-4.3477 0.60547-6.5312 0.77344-3.8594 0.29687-7.7227 0.48828-11.762 0.73437 0.16016 0.42578 0.3125 0.83203 0.56641 1.5117-8.2539 4.7969-17.492 5.6445-26.871 6.5234 0.26953 0.64844 0.5 1.207 0.79688 1.9219-3.707 3.4297-8.1289 5.6875-12.73 7.9531z" fill="#fca146"/>
<path d="m332.12 228.93c3.7852-1.0742 7.5586-2.1641 11.352-3.2031 0.90234-0.24609 1.8516-0.30469 2.9141-0.47266 0.65234 1.8828 0.95313 3.9297 3.0312 5.0859 11.051-8.3672 23.949-13.012 36.875-17.559 1.3164 2.2891 1.3164 2.2891 2.6484 2.9961 1.6797-2.3438 3.3594-4.6953 5.3516-7.0586 3.5977 0.78906 6.918 1.3711 10.324 1.2734 1.2891-0.035157 2.4297 0.070312 3.4727 1.0742 1.0352 1 2.4141 1.1914 3.7305 0.38672 1.4453-0.87891 2.4492-0.33984 3.5195 0.75391 2.1602 2.2109 2.1992 2.168 3.8711-0.41406 0.0625-0.10156 0.26953-0.11719 0.41406-0.17188 0.13672 0.0625 0.35156 0.085937 0.40625 0.19141 0.24609 0.48438 0.47266 0.98438 0.66406 1.4922 0.73828 1.9609 1.3359 2.2852 3.3672 1.7695 0.37891-0.09375 0.75-0.24219 1.125-0.35547 1.8633-0.56641 2.1797-0.32031 2.9961 1.4766 0.80469 1.7773 1.8242 3.4609 2.75 5.1836-0.49609 0.67188-0.99219 1.3438-1.5938 2.1602 0.69922 0.21875 1.1836 0.36719 1.7852 0.55469-2.5391 6.8242-6.3047 12.953-9.8438 19.461 1.0586 0.31641 1.9844 0.59766 3.1641 0.95312-3.0664 8.0078-8.1289 14.887-12.441 22.449 0.86719 0.074219 1.5234 0.13281 2.4219 0.21484-1.3672 5.2773-4.7148 9.2578-7.9297 13.449 0.42578 0.32812 0.69141 0.58984 1.0078 0.76172 0.32422 0.17188 0.69141 0.25391 1.2461 0.44531-1.7969 3.7188-4.0156 6.9375-6.9297 10-3.7812 0.019531-4.3438-0.86328-2.9258-3.9141 0.46875-1.0039 0.88672-2.0312 1.2812-3.0664 0.39062-1.0273 0.007813-1.9961-0.9375-2.3047-1.0273-0.33594-1.4141 0.30469-1.6641 1.168-0.28906 0.98828-0.55859 1.9922-0.97656 2.9258-0.77344 1.7109-1.3086 3.6016-3.1836 4.7109-0.77344-0.25781-1.582-0.57812-2.418-0.79297-2.668-0.68359-5.3477-1.3281-8.0859-2.168-1.3477-4.8125-2.6289-9.4453-3.7148-14.094 0.99609-0.039063 1.3281-0.49219 1.2695-1.2422-0.13281-1.6875 0.44531-3.2344 0.78516-4.8477 0.43359-2.0664 0.58203-4.2695-1.1016-6.0195-1.793-1.8594-3.6367-3.6758-5.4219-5.5469-0.67578-0.71094-1.25-1.5234-1.7188-2.3594 2.9062-1.1914 4.5078-3.3711 5.6172-6.0039 1.2773-3.0312 0.5625-4.7266-2.4922-5.9531-2.7188-1.0938-5.6055-1.3438-8.3984-0.85937-3.1289 0.54687-5.7852 1.6914-6.0117 5.6758-1.668-0.12891-3.1328-0.34766-4.6016-0.35938-1.2344-0.007813-2.4688 0.23047-3.832 0.25781-2.5039-2.832-5.5078-3.8672-9.2578-3.4805-1.5508-0.47656-1.9727-1.3672-1.3828-2.625 0.62891-1.3477 1.2539-2.7266 2.0898-3.9492 1.3438-1.9609 1.832-3.9258 1.0508-6.2617-0.41406-1.2305-0.62109-2.668-2.0039-2.9492-1.3398-0.26953-1.9766 1.1172-2.6836 2.0078-1.4805 1.8594-1.7305 2.0273-3.9688 1.2188-1.6953-0.61328-3.3398-1.375-5.0078-2.0664z" fill="#fc7f47"/>
<path d="m331.98 228.94c1.8281 0.68359 3.4727 1.4414 5.1719 2.0547 2.2383 0.80859 2.4844 0.64062 3.9648-1.2188 0.71094-0.89062 1.3477-2.2773 2.6875-2.0039 1.3789 0.27734 1.5859 1.7148 2 2.9453 0.78125 2.3359 0.29297 4.3008-1.0469 6.2617-0.83594 1.2227-1.4609 2.6016-2.0938 3.9492-0.58594 1.2578-0.16406 2.1484 1.207 2.6914-3.0312 0.82812-5.4609 2.543-7.6055 4.7305-3.2461 3.3047-5.793 7.1172-8.1445 11.078-0.46484 0.77734-0.94531 1.5469-1.6406 2.6797-0.22266-1.0391-0.32422-1.5625-0.45312-2.082-1.043-4.2617-3.3438-7.3086-7.9102-8.1523-0.17188-1.3242-0.23828-2.6758-0.53516-3.9688-0.46484-2.0078-1.5781-3.6445-3.4375-4.625-2.5859-1.3633-5.2383-2.5977-7.8125-3.9883-0.62109-0.33203-1.457-1.0469-1.4648-1.5977-0.035156-2.5-1.1484-4.5898-2.2344-6.6836-0.82812-1.5898-1.2891-3.1719-1.2383-4.9844 0.027344-0.89062-0.24609-1.9414-0.75391-2.6602-2.2656-3.2266-4.6641-6.3594-7.0195-9.5234-0.14453-0.19141-0.38672-0.33203-0.46484-0.53906-1.0117-2.7266-3.1133-4.4805-5.3008-6.2344-1.7773-1.4219-2.7656-3.4023-3.1133-5.6953-0.11328-0.75781-0.44922-1.4805-0.69922-2.2617-0.45312 0-0.84375-0.125-1.0625 0.015625-2.6445 1.7227-5.4141 0.34766-8.1055 0.28516-1.6016-0.035156-2.8477-1.5938-2.9141-3.2812-0.050781-1.3242 0.10547-2.6758 0.32031-3.9883 0.17969-1.1016 0.082031-1.9883-0.76562-2.8125-1.4531-1.4062-2.3047-3.1758-2.8984-5.1016-0.34766-1.1289-0.83594-2.2148-1.2422-3.3281-0.60547-1.6602-1.7578-2.6797-3.3516-3.4727-1.8984-0.94531-3.6133-2.25-5.4258-3.3633-0.46875-0.28906-1.0234-0.67188-1.5156-0.64062-2.7695 0.18359-4.4375-1.8477-6.4922-3.0977-0.69141-0.41797-1.375-0.85156-2.0625-1.2812-0.125 0.11719-0.25391 0.23047-0.38281 0.34375 0.25 1.0273 0.50391 2.0586 0.81641 3.3359-1.7461-0.36328-3.3164-0.69141-5.1172-1.0664 1.2812-1.8867 0.45312-3.5039-0.29688-5.1719-0.35156-0.77734-0.42969-1.6758-0.68359-2.5039-0.25-0.80078-0.5625-1.5859-0.82812-2.3242-3.4141 0.44922-5.6797 3.4805-5.0859 6.5117 0.31641 1.6016 0.054688 2.1133-1.418 2.7656-0.43359 0.19141-0.89844 0.31641-1.3164 0.53906-2.9883 1.5977-5.6445 1.0312-8.0078-1.2539-0.9375-0.90625-1.8906-1.707-3.4609-1.6523 0.023437-5.4102 1.2891-10.621 3.1055-15.664 0.81641-2.2617 2.3516-4.2656 3.5039-6.2891 1.2617 0.74609 2.3906 1.4141 3.7266 2.1992 2.2891-5.1602 4.4492-10.031 6.7383-15.016 1.1523 1.1875 2.2227 2.4531 3.1992 3.7891 1.8945 2.6016 0.97656 5.5234-2.0664 6.6328-0.66406 0.24609-1.375 0.35938-2.0547 0.55859-1.4414 0.42188-2.3906 1.4922-2.543 2.8516-0.14453 1.3281 0.39453 2.6523 1.7969 3.332 0.5 0.24609 0.97656 0.53906 1.4883 0.74609 1.3828 0.56641 2.4531 1.3594 2.8281 2.9414 0.13281 0.54688 0.67969 0.99219 0.9375 1.3438 1.7109-0.30078 3.1836-0.53125 4.6406-0.83594 0.93359-0.19531 1.5352-0.70312 1.5039-1.8047-0.054687-2.0352 0.69141-3.7148 2.4648-4.832 0.70312-0.44141 1.1055-1.1133 0.75391-1.7969-0.82031-1.6055 0.027344-2.6992 1.0742-3.8398-0.40234-0.5-0.73828-0.91797-1.082-1.332-1.1094-1.3203-1.1562-1.8633-0.042968-3.0469 1.25-1.3281 2.543-2.6211 3.875-3.8711 1.2891-1.2109 2.7383-1.2461 3.9844 0.011719 1.7773 1.7969 3.4844 3.668 5.125 5.5938 0.59375 0.69141 0.96875 1.6016 1.332 2.457 0.39062 0.92578 0.65234 1.9062 0.95703 2.8164 1.3398-0.11328 2.4141-0.20703 3.6094-0.3125-1.7422 3.0508-3.4062 3.3906-5.5781 0.98828-2.8203-3.1211-6.0938-2.6836-10.035-1.668 0.71484 0.80078 1.1133 1.4805 1.707 1.8711 4.832 3.1562 9.6406 6.3594 14.586 9.3281 1.5742 0.94531 3.5547 1.1992 5.3242 1.8398 1.4844 0.53906 2.9414 1.1562 4.3906 1.7852 0.87891 0.37891 1.7148 0.84766 1.7773 2.3086-3.3086 0.80469-6.6719 1.7188-8.9883 5.0234 1.1758 2.0234 1.8008 4.5078 3.5859 6.2188 1.3008-0.70703 2.5156-1.3164 3.6797-2.0156 1.043-0.62891 1.8359-0.30078 2.4688 0.55469 0.70703 0.94922 1.3633 1.9414 1.9688 2.957 1.1875 1.9844 2.0352 2.3242 4.0703 1.2539 0.87109-0.45703 1.6484-1.1758 2.332-1.9062 1.1484-1.2344 2.1992-1.2461 2.9141 0.3125 1.2852 2.8008 2.4609 5.6562 3.543 8.543 0.55078 1.4648 0.20703 1.7891-1.2773 2.7422-0.69922 0.45312-1.4766 1.0977-1.7461 1.832-0.42187 1.1328-1.082 1.457-2.1484 1.4023-0.47266-0.023438-0.95312-0.011719-1.4258 0.003906-0.73047 0.019531-1.6055 0.042969-1.5195 1.0039 0.027344 0.33594 0.87891 0.71094 1.4102 0.86328 0.82422 0.23438 1.7305 0.19531 2.5391 0.45313 0.79297 0.25391 1.5078 0.74219 2.4609 1.2305-0.51172-2.3633 0.92969-3.1836 2.6289-3.9531 2.9727-1.3477 5.9062-2.4023 9.0117-0.44531 0.39062 0.24609 1.0352 0.57031 1.043 0.87109 0.050782 1.9219 0.79297 3.9336-0.57422 5.7188-1.9805 2.5859-1.2891 5.3906-0.55469 8.1523 0.21484 0.81641 0.99609 0.87109 1.7734 0.78906 4.6523-0.48828 8.668 0.51562 11.613 4.5625 0.78906 1.0859 2.2109 1.707 3.418 2.6016-0.023438 0.10547 0.007812 0.40625-0.125 0.52734-1.3008 1.1992-1.375 2.5859-0.73438 4.1211 0.44141 1.0547 0.73047 2.1133-0.41406 3.0273 1.2227 1.3438 2.1523 2.5586 2.0703 4.4531-0.058594 1.2773 1.2422 2.0938 2.5898 2.6758-0.67578 1.7461-1.5234 3.4688-2.4727 5.4375-0.066406 0.36328-0.035156 0.48828-0.003906 0.60938 0.09375-0.09375 0.19141-0.1875 0.28516-0.28125 1.543-0.67969 3.082-1.3633 4.7852-2.0547z" fill="#fc9244"/>
<path d="m210.6 202.1c1.4023-0.09375 1.6758-1.2852 2.2227-2.0781 1.0234-1.4883 1.875-3.1016 2.9297-4.5703 1.2969-1.8047 2.3945-2.1133 4.4023-1.2812 1.0078 0.41797 1.8594 0.76172 2.832-0.085938 0.28516-0.25 0.89844-0.19531 1.3555-0.16797 1.4883 0.097657 2.9766 0.375 4.457 0.33594 1.7812-0.042969 3.0898 0.41016 3.7422 2.2148 0.20313 0.5625 0.64063 1.0391 0.97266 1.5625 2.0391-0.44922 2.5586-3.4688 5.168-2.6172 1.1953 1.707 1.0469 3.7266 0.67969 5.6289-0.30859 1.6211-0.41016 3.0625 0.31641 4.5977 0.62891 1.3164 0.34375 2.0273-0.88672 2.793-0.80469 0.5-1.6758 0.90234-2.5391 1.293-2.5625 1.1602-4.4141 3.0078-5.5703 5.5703-0.32813 0.72266-0.74219 1.4023-1.0547 2.1289-0.48828 1.1211-1.1641 1.9609-2.3164 2.5508-1.8359 0.94141-1.9297 1.5859-0.92578 3.3711 0.19531 0.34375 0.41797 0.67969 0.54688 1.0508 0.35547 1.0234-0.089844 1.7266-1.1953 1.7539-0.61328 0.015624-1.2266-0.23438-1.8438-0.33594-1.3633-0.21875-1.9805 0.23438-1.9492 1.6172 0.011719 0.66797 0.27344 1.3633 0.57031 1.9766 0.36719 0.77344 0.88281 1.4727 1.2891 2.125-0.81641 2.5469-2.6523 3.7734-5.0781 4.5898-0.82422-0.34766-1.4883-0.76953-2.1641-1.1758-1.7891-1.082-3.6055-1.7227-5.5234-0.21094-1.0703-0.55859-1.6094-1.125-1.2969-2.4531 0.30078-1.2812 0.25781-2.6641 0.24219-4-0.015625-1.2383 0.22266-2.332 0.99219-3.3359 0.42578-0.55859 0.73828-1.2148 1.0391-1.8594 0.56641-1.2031 1.2422-2.1992 2.7734-2.2344 0.45312-0.011718 0.90234-0.27734 1.3516-0.43359 0.6875-0.24219 0.97656-0.69531 0.91016-1.4531-0.16016-1.7227-0.31641-3.4453-0.36719-5.1758-0.070313-2.3906-0.90625-3.4883-3.2617-3.7383-1.082-0.11719-2.2578-0.10938-3.2891 0.1875-2.0117 0.57422-3.5547 0.042969-4.9141-1.4375-0.75-0.82031-1.5312-1.6094-2.3594-2.3516-1.168-1.0508-2.1602-1.0352-3.3438 0.007812-0.65625 0.57422-1.1953 1.2969-1.8984 1.793-1.1758 0.82031-2.4531 1.4531-3.9805 1.2773-1.6094-0.18359-2.793 0.55859-4.0586 1.5312-2.625 2.0117-5.4102 3.8242-8.2148 5.5781-0.65625 0.41016-1.7227 0.53516-2.4805 0.33203-2.4727-0.66016-4.8672-0.97656-7.4648-0.51172-1.1055 0.19922-2.5586-0.66406-3.625-1.3867-0.96875-0.65625-1.7148-0.82031-2.8242-0.47266-2.3281 0.73047-4.6914 1.375-7.082 1.8555-0.85547 0.17578-2.0195 0.066406-2.707-0.40625-2.918-2.0156-6.043-1.3008-9.1602-0.98438-0.70312 0.070312-1.4102 0.13672-2.1211 0.17188-1.5547 0.078125-2.9531 0.51172-3.9844 1.7617-1.3867 1.6797-3.3281 2.3242-5.2969 2.9766-1.707 0.5625-3.4375 1.1328-5.0352 1.9375-2.4844 1.2539-5.1445 1.2109-7.6758 0.83984-2.5664-0.375-4.8359 0.10547-7.082 1.0625-1.3438 0.57422-2.5898 0.61328-4.0742 0.019531-0.17969-2.625-0.17969-5.2227-0.17969-7.9609 0.83203 0.066406 1.5781 0.12891 2.5156 0.20312-0.45703-5.2383-1.4219-10.402 0.36328-15.641 0.71875 0.37109 1.3086 0.67578 1.9805 1.0273 0.14844-0.32031 0.3125-0.51563 0.3125-0.70703 0.023438-4.5195-0.089843-9.0469 0.078125-13.559 0.12891-3.5234 0.60547-7.0352 0.94531-10.766 0.75391 0.15234 1.1836 0.24219 1.7305 0.66016 0.20703 0.55078 0.23047 0.875 0.39062 0.96875 1.7344 1 2.6055 2.6484 3.5703 4.3086 0.64844 1.1172 1.707 2.125 2.8086 2.8164 1.7969 1.125 3.7734 1.9648 5.6875 2.9023 0.41797 0.20312 0.87891 0.41406 1.3359 0.44922 4.4766 0.35156 8.9531 0.86328 13.434 0.91406 2.6953 0.03125 4.8438 0.78516 6.9375 2.4023 1.7305 1.3438 3.7422 2.5156 6.0742 2.0859 1.9414-0.35938 3.2695 0.40625 4.2969 1.8164 0.66016 0.90234 1.1367 1.6719 2.4609 1.1289 0.30078-0.12109 1.043 0.35156 1.3203 0.73828 1.8906 2.6094 4.668 2.6523 7.3867 2.4297 2.4688-0.20312 4.5586-0.046875 5.8672 2.4062 0.27734 0.51562 0.81641 0.89062 1.3047 1.4062 1.5547-1.2422 2.875-2.4141 3.7656-4.0664 1.0703-1.9883 2.8359-3.3984 5.0352-3.5273 2.875-0.16406 5.4023-0.96484 7.7383-2.5664 1.6484 1.1914 3.418 2.2461 4.9219 3.5977 2.7539 2.4805 5.3711 5.1172 7.4492 8.7812 0.10938-1.5391 0.19141-2.6602 0.32031-3.9844z" fill="#fcad48"/>
<path d="m197.79 193.57c-2.2227 1.7344-4.75 2.5352-7.625 2.6992-2.2031 0.12891-3.9648 1.5391-5.0352 3.5273-0.89062 1.6523-2.2109 2.8242-3.7656 4.0664-0.49219-0.51562-1.0273-0.89062-1.3047-1.4062-1.3086-2.4531-3.3984-2.6094-5.8711-2.4062-2.7148 0.22266-5.4961 0.17969-7.3828-2.4297-0.27734-0.38672-1.0195-0.85938-1.3203-0.73828-1.3242 0.54297-1.8008-0.22656-2.4609-1.1289-1.0312-1.4102-2.3555-2.1758-4.2969-1.8164-2.332 0.43359-4.3438-0.74219-6.0781-2.0859-2.0898-1.6172-4.2383-2.3711-6.9336-2.4023-4.4805-0.050781-8.957-0.5625-13.434-0.91406-0.45703-0.035156-0.91797-0.24219-1.3359-0.44922-1.9141-0.9375-3.8906-1.7773-5.6875-2.9023-1.1016-0.69141-2.1602-1.6992-2.8086-2.8164-0.96484-1.6602-1.8359-3.3047-3.5703-4.3086-0.16016-0.09375-0.1875-0.41797-0.28516-0.80469 1.7422-0.26172 1.7422-0.26172 2.0508-2.2812 3.2539 0.63281 6.3398 1.2852 9.3125 2.2773 2 0.66797 3.9727 0.92969 6.0352 0.84375 2.5586-0.10156 3.9648-1.4141 3.9727-3.9805 0.003906-1.6055 0.44531-2.8789 1.5781-4.0391 1.2266-1.2578 1.1367-1.832-0.14844-3.1914-1.4531-1.5469-3.0195-2.9414-4.0742-4.8789-0.96875-1.7734-2.5234-1.8164-4-0.28125-0.92969 0.96484-1.9219 1.2656-3.1836 1.0859-1.2383-0.17578-2.5-0.21484-3.7305-0.44531-1.7266-0.32812-3.6562-0.046875-5.0469-1.5156 0.17578-1.6367 0.35156-3.2734 0.53906-4.9922h1.9375c-0.085938-1.1836-0.082032-2.3672-0.27734-3.5195-0.78516-4.707-0.90625-9.4453-0.72656-14.199 0.042968-1.2109-0.17969-2.7773 2.1445-2.4609-0.96094-11.742-1.0273-23.281-3.8828-34.574 5.1875 7.7344 9.4375 16.055 15.566 23.332 0.84766-0.40234 1.6016-0.75781 2.457-1.168 2.7266 3.0547 4.9102 6.5312 6.8398 10.133 1.9023 3.5469 3.6016 7.2305 3.6914 11.348 1.6992 0.92578 3.207 0.51953 4.8359-0.24609 4.7539 6.5391 8.7734 13.238 9.0391 21.527 1.6836-0.042969 1.6836-0.042969 4.1367-1.4766 8.9141 9.3594 17.754 18.805 23.184 31.246 1.6328-1.1016 3.2266-2.1719 4.9492-3.3281 0.50391 0.25781 1.1953 0.61328 1.9961 1.1016z" fill="#fca246"/>
<path d="m329.41 104.54c-2.6172 0.75781-4.7422 2.0156-6.1836 4.2656-1.3867 2.1719-3.1289 3.9648-5.3164 5.3359-0.53125 0.33203-1.1953 0.65234-1.4766 1.1562-1.793 3.2383-4.5898 5.8594-5.7383 9.4961-0.64453 2.0391-0.89844 2.1211-2.8867 1.5156-0.75781-0.23047-1.582-0.35156-2.2461-0.74609-0.63281-0.37891-1.4414-0.98047-1.5664-1.6016-0.64453-3.2695-2.5-5.9766-3.8633-8.9102-0.76953-1.6562-1.3242-3.3242-1.6719-5.1484-0.32422-1.707-1.2539-3.4062-2.2852-4.8477-2.5703-3.5898-5.4219-6.9805-8-10.562-0.64062-0.89062-0.85547-2.1992-0.95703-3.3438-0.17578-2.0117-0.66406-3.8047-1.9219-5.4609-0.79688-1.043-1.1836-2.3984-1.8906-3.7148 2.7227-5.5391 9.3281-14.988 11.672-16.953 0.23828 1.1875 0.46875 2.3398 0.70312 3.4961 0.16797 0.042969 0.33594 0.082031 0.50781 0.125 10.543-14.691 20.051-30.152 31.738-44 0.20312 0.042969 0.41016 0.089843 0.61328 0.13281 0.16016 0.87109 0.4375 1.7383 0.46484 2.6094 0.23438 7.8477-0.32031 15.648-1.2969 23.43-0.44922 3.6016-0.66797 7.2344-1.0742 10.844-0.41016 3.6055-0.9375 7.1992-1.3867 10.805-0.10156 0.82031-0.089844 1.6562 0.28516 2.6797 0.83203-0.87891 1.6602-1.7578 2.7812-2.9375 0.22266 1.2344 0.5 2.1875 0.55469 3.1484 0.24609 4.4219 0.54297 8.8438 0.60547 13.27 0.074219 5.2305-0.078124 10.465-0.16797 15.918z" fill="#fc6c40"/>
<path d="m214.98 401.05c1.6328-0.046875 3.082 0.12109 4.082-1.5391 0.23438-0.38672 1.5781-0.26953 2.3633-0.12109 1.293 0.25 2.5273 0.94141 3.8164 1.0273 1.543 0.10156 2.7539 0.57031 3.7773 1.6836 0.25391 0.27734 0.60156 0.46875 0.97656 0.75391 0.37109-0.28125 0.70703-0.48047 0.98047-0.74219 2.5664-2.4961 5.7773-2.2891 8.9375-1.9922 0.71875 0.070312 1.5977 0.79297 2 1.457 1.0508 1.75 2.0586 3.5703 2.7617 5.4844 1.3086 3.5469 2.3984 7.1758 3.5469 10.777 0.23047 0.72656 2.2344 3.6328 2.8477 4.1641 0.46094 0.40234 0.76562 0.97656 1.1445 1.4688 0.45703 0.59375 0.92188 1.1836 1.3477 1.7266 1.3828-0.48828 1.1562-1.4453 1.1953-2.2812 0.10938-2.3125 0.11719-2.3242 2.4727-2.4375 0.39453-0.019531 0.80078 0.011719 1.1836-0.074218 0.84375-0.18359 1.1992-0.77734 1.0195-1.5898-0.19141-0.87891-0.90234-0.76562-1.5195-0.57422-0.59375 0.1875-1.1523 0.48828-1.6953 0.72266-1.3164-1.4414-1.3438-2.0469-0.10547-3.3984 0.74219-0.8125 1.7773-1.5039 1.4688-2.7891-0.16797-0.71484-0.45703-1.6367-1-1.9844-1.2383-0.78906-2.5859-1.5703-4.2148-1.0391-0.35156 0.11719-0.79688 0.18359-1.1367 0.070312-1.543-0.50781-3.9414-5.0508-3.4961-6.6133 0.35547-1.2539 1.1992-2.0117 2.707-2.2188 0.66016 1.5273 2.1719 1.8672 3.6328 2.4141 0.71484 0.26562 1.3359 1.043 1.7891 1.7305 1.1328 1.7305 1.2109 1.7578 3.2344 1.0586 0.91797-0.31641 1.918-0.38281 3.1289-0.60547 0.066406 1.1367 0.09375 1.9102 0.16016 2.6758 0.12891 1.4492 0.66797 2.0469 1.9453 1.5859 1.4297-0.51953 2.625 0.33203 3.957 0.22266 0.83594-0.066406 1.2305 0.64453 1.2109 1.457-0.042968 2.1523-0.63281 4.1211-2.4922 5.375-1.4375 0.96875-2.9883 1.793-4.5625 2.5195-2.2617 1.0469-2.9297 2.0586-2.3242 4.4648 0.42188 1.6758 1.0625 3.3008 1.6836 4.9219 0.77734 2.0234 0.625 2.3984-1.3789 3.1016-1.5938 0.55859-2.7734 1.4883-2.8047 3.5391-2.2891-1.4844-4.7031-3-6.8359-4.8438-2.25-1.9414-4.2344-4.1953-6.4258-6.3984-0.10156 0.92188-0.20312 1.8008-0.32422 2.8906-2.6211-1.2383-4.3672-3.207-6.0117-5.1602-2.5938-3.0742-5.0195-6.3008-7.3672-9.5703-1.8438-2.5664-3.5234-5.2539-5.1602-7.9609-1.4219-2.3516-3.5703-3.3711-6.082-3.9805-2.3633 22.512-10.379 42.723-22.375 61.445-1.957-0.4375-5.707-3-9.6094-6.5625 0.25391-0.050782 0.48828-0.074219 0.71094-0.14062 4.2031-1.2969 7.2305-4.1211 9.6289-7.6484 2.168-3.1914 3.9805-6.5742 5.6992-10.047 2.1055-4.25 3.7773-8.6367 5.2148-13.109 1.5625-4.8477 2.8477-9.7852 4.168-14.703 0.75391-2.8047 1.3359-5.6562 2.1289-8.6133z" fill="#fdbb49"/>
<path d="m115.51 358.69c0.51953 1.7305 0.82031 3.418 1.1523 5.2695-0.92188 0.1875-1.7344 0.35547-2.7539 0.5625 0.26562 0.46875 0.37891 0.98828 0.69531 1.1875 2.3789 1.5039 3.7227 3.8008 4.9453 6.2148 0.64453 1.2695 1.3555 2.5039 2.0352 3.7539 0.99219 1.8359 0.96094 3.8164 0.67578 5.7812-0.16016 1.1211-1.2617 2.0547-2.1797 1.7383-2.2383-0.77344-3.9766 0.52344-5.875 1.1367-0.74609 0.23828-1.4102 0.72266-2.1367 1.0352-2.0273 0.875-3.8242 1.8867-2.8516 4.668-2.7852 0.85156-5.2344 2.0117-7.9805 1.8398-1.7773-0.11328-3.1016 0.86719-4.207 1.9102-2.2695 2.1367-5.1016 1.957-7.7891 2.1289-1.9219 0.12109-2.6992-1.3633-1.5781-2.793 1.5664-1.9961 1.7812-3.7891-0.28516-5.6758 0.60156-0.49219 1.0039-0.82031 1.4023-1.1523 0.98828-0.83203 1.0195-1.957 0.078125-2.7969-1.2188-1.082-2.6211-1.3281-4.1992-1.0391-1.4258 0.26562-1.8633-0.035157-2.2422-1.2891-0.58203-1.9453-0.95703-2.2969-2.918-2.0977-0.99219 0.10156-1.9453 0.57031-3.0938 0.89453 0.32812-1.6445 1.9844-3.0273 0.77344-5.1562 0.99609-0.050781 1.707-0.003906 2.3867-0.13672 1.0703-0.20312 2.1836-0.375 3.1562-0.82422 2.5234-1.1719 2.9023-2.1211 2.1953-5.0742 1.5078-1.5312 3.4141-2.5977 5.4062-3.5312 0.71094-0.33203 1.457-0.66406 2.2227-0.80469 1.6445-0.30859 2.6328-1.0547 2.1406-3.0977 6.8477-1.8984 13.68-2.6523 20.824-2.6523z" fill="#fdc850"/>
<path d="m431.07 221.31c-1.0664-1.6562-2.0859-3.3398-2.8906-5.1172-0.81641-1.7969-1.1328-2.043-2.9961-1.4766-0.375 0.11328-0.74609 0.26172-1.125 0.35547-2.0312 0.51562-2.6289 0.19531-3.3672-1.7695-0.19141-0.50781-0.41797-1.0078-0.66406-1.4922-0.054688-0.10547-0.26953-0.12891-0.40625-0.19141-0.14453 0.058594-0.35156 0.070312-0.41406 0.17188-1.6719 2.582-1.7109 2.625-3.8711 0.41406-1.0703-1.0938-2.0742-1.6328-3.5195-0.75391-1.3164 0.80469-2.6953 0.61328-3.7305-0.38672-1.043-1.0039-2.1836-1.1094-3.4766-1.0742-3.4023 0.097656-6.7227-0.48438-10.188-1.3594-0.11719-0.30469-0.13672-0.60156 0.003906-0.75 2.5703-2.7773 5.1445-5.5469 7.7539-8.2852 0.41797-0.4375 0.99609-0.72266 1.2109-0.875 3.1172 1.5391 6 2.9609 9.0117 4.4492 5.918-7.1562 13.582-11.312 21.605-14.965 0.94922 2.1562 1.4727 2.4453 3.6562 1.457 2.6562-1.2031 5.2305-2.5938 7.8242-3.9414 1.7969-0.93359 3.5625-1.9297 5.5156-2.7305-5.2695 6.6602-8.4219 14.344-11.621 22.184 0.54688 0.33203 1.043 0.63672 1.5586 0.94531-0.058594 0.29688-0.066406 0.53906-0.15625 0.74609-2.3984 5.3203-6.0039 9.8359-9.7148 14.445z" fill="#fc6c41"/>
<path d="m438.33 367.24c-0.68359-1.4219-1.0234-2.9062-1.6562-4.2539-1-2.1406-0.91797-4.2422-0.089843-6.4297-0.66016-0.30469-1.2461-0.53125-1.7852-0.83203-1.25-0.69922-2.1133-1.625-1.9609-3.2188 0.18359-1.9453-0.875-3.2695-2.3164-4.3828-0.43359-0.33594-1.0195-0.625-1.2266-1.0781-1.3242-2.8945-3.6719-4.9336-5.875-7.2891 3.9805-0.51172 8.0117-0.25 12.18 0.70312 0.61328 1.6914 0.76172 3.0508 0.29688 4.4805-0.3125 0.96484-0.49219 2.0195 0.68359 2.5547 0.20703-0.058594 0.3125-0.058594 0.35156-0.10547 0.23047-0.30078 0.48047-0.59375 0.66016-0.92188 0.78125-1.4141 0.92578-1.457 2.3047-0.62891 0.69141 0.41797 1.3828 0.83594 2.0742 1.2539 0.097656-0.10547 0.19141-0.21484 0.28906-0.32031-0.75781-1.8672-1.5156-3.7305-2.2734-5.5977 2.1875 0.33984 4.0781 1.0273 5.7969 2.6758 1.5352 1.4766 3.6914 2.3047 5.5156 3.6328-0.55469 0.82031-0.98047 1.5078-1.5586 2.0234-1.1523 1.0234-0.48047 2.082-0.058594 3.0273 0.49219 1.1055 1.5664 0.90625 2.4961 0.625 1.5117-0.45703 3-0.99219 4.5-1.4961 2.3203-0.77734 2.2656-0.72656 3.8828 1.0039 0.95312 1.0195 1.793 2.375 3.6016 2.3516 0-0.39844 0.070313-0.65625-0.011718-0.84766-0.8125-1.8828-0.29297-3.3594 1.2578-4.6094 0.48438-0.38672 0.83203-0.94531 1.2422-1.4258 0.26953 0.67578 0.54297 1.3516 0.96094 2.3828 5.3867 2.2773 11.586 1.9141 18.074 3.0664-1.8359 0.81641-3.2734 1.4648-4.7148 2.0977-1.0156 0.44141-2.0898 0.77734-3.043 1.3242-0.77344 0.44531-2.0078 0.51953-1.9375 1.9414 0.007812 0.19922-0.75781 0.45703-1.1797 0.66016-5.3945 2.6172-11.203 3.9297-17.027 4.9805-6.3633 1.1523-12.82 1.7891-19.453 2.6523z" fill="#fc9245"/>
<path d="m57.555 258.83c-0.82031 0.47656-1.7227 0.95312-2.6836 1.1562-2.4023 0.51172-2.9375 1.2539-2.1094 3.6367 0.65625 1.8789 0.71094 3.6602 0.035156 5.543-0.30859 0.86328-0.32812 1.8438-0.41016 2.7734-0.10938 1.332-0.41797 2.4062-1.8945 2.9531-0.60547 0.22266-1.125 1.0352-1.4062 1.6992-0.73438 1.7344-2.7969 2.2812-3.8203 0.70312-1.9062-2.9336-4.7617-5.3398-5.3281-9.0703-0.042969-0.28906-0.26562-0.5625-0.42969-0.82422-0.95312-1.5352-1.8789-3.0938-2.8867-4.5898-0.70312-1.043-1.4766-2.043-2.3008-2.9922-1.2969-1.4883-1.3281-1.8711-0.027343-3.3945 0.30078-0.35156 0.57812-0.72266 0.87109-1.0859-0.98047-2.2227-2.8047 0.10938-4.1367-1.0039 0.10938-0.47656 0.24219-1.0547 0.39844-1.8164 0.76172-0.33594 1.7734-0.24219 2.1875-0.69531 1.3008-1.4336 2.5039-0.91016 3.8203-0.19141 2.25 1.2266 4.2422 2.7578 5.8359 4.7852 0.23828 0.30469 0.57031 0.53516 1.0859 1.0078 1.1016-0.63672 2.2266-1.2891 3.6445-2.1094 3 0.88281 6.3594 1.7305 9.5547 3.5156z" fill="#fdc850"/>
<path d="m296.38 444.76c0.019532-1.8281 0.33203-3.457 2.457-4.0859 0.52344-0.15625 0.93359-1.1836 1.1133-1.8828 0.19141-0.74219 0-1.5781 0.0625-2.3633 0.11328-1.4219 0.64844-2.5859 2.0703-3.0742 0.22266 0.10156 0.43359 0.12891 0.49219 0.23828 1.3555 2.3984 3.1914 2.7773 5.3516 1.0586 0.49219-0.39453 0.89453-0.89844 1.375-1.3125 0.76953-0.66797 1.6719-0.74219 2.3359 0.015625 1.9102 2.1836 4.625 2.9922 7.0508 4.2891 0.9375 0.5 1.625 1.0273 2.0039 2.1445 0.51563 1.5273 1.6328 2.5938 3.25 3.2188 0.88281 0.33984 1.8477 1.0938 2.25 1.918 0.95703 1.9766 1.5977 4.1016 2.3672 6.3516-2.7734 0.30859-5.3008-0.66797-7.7812-1.6875-3.8711-1.5938-7.6797-3.3359-11.516-5.0117-0.35547-0.15234-0.71875-0.27734-1.293-0.49609v2.1211c-3.875-0.046875-7.6328-0.78125-11.594-1.4414z" fill="#fca246"/>
<path d="m121.24 161.01c1.5117 1.3086 3.4414 1.0273 5.168 1.3555 1.2266 0.23047 2.4922 0.26953 3.7305 0.44922 1.2617 0.17969 2.2539-0.125 3.1836-1.0898 1.4766-1.5312 3.0312-1.4922 4 0.28125 1.0547 1.9375 2.6211 3.3359 4.0742 4.8789 1.2812 1.3633 1.375 1.9336 0.14844 3.1914-1.1328 1.1602-1.5742 2.4336-1.5781 4.0391-0.007812 2.5664-1.4141 3.8789-3.9727 3.9844-2.0625 0.082032-4.0352-0.17969-6.0352-0.84766-2.9727-0.99219-6.0586-1.6445-9.2812-2.4648 0.023437-4.5547 0.23047-9.0859 0.5625-13.777z" fill="#fcad48"/>
<path d="m382.98 288.57c2.6758 0.66016 5.3555 1.3047 8.0234 1.9922 0.83594 0.21484 1.6406 0.53516 2.4141 0.79297 1.875-1.1094 2.4141-3 3.1836-4.7148 0.42188-0.92969 0.69141-1.9375 0.98047-2.9219 0.25-0.86328 0.63672-1.5078 1.6641-1.168 0.94531 0.30859 1.3281 1.2773 0.9375 2.3047-0.39844 1.0352-0.81641 2.0625-1.2812 3.0664-1.418 3.0469-0.85547 3.9336 2.7773 3.9805-1.6719 2.3164-3.5391 4.6328-5.4297 6.9766 0.32422 0.53516 0.96875 1.1172 0.92188 1.6406-0.058594 0.70703-0.53516 1.4648-1.0273 2.0352-1.7422 2.0156-3.5664 3.9609-5.4961 6.0234-0.26172-0.26953-0.28516-0.77344-0.53906-0.96484-1.9883-1.4805-3.832-3.2188-6.332-3.8633-1.9219-0.49609-3.2891-1.6641-4.1172-3.6719 1.8984-1.6289 2.957-3.4844 3.2148-5.6562 0.22656-1.9258 0.082031-3.8984 0.10547-5.8516z" fill="#fc9245"/>
<path d="m466.48 348.07c-0.21875 0.53906-0.56641 1.0977-1.0508 1.4844-1.5508 1.25-2.0703 2.7305-1.2578 4.6094 0.082031 0.19141 0.011719 0.44922 0.011719 0.84766-1.8086 0.023437-2.6484-1.3281-3.6016-2.3516-1.6172-1.7305-1.5625-1.7812-3.8828-1.0039-1.5 0.50391-2.9883 1.0391-4.5 1.5-0.92969 0.28125-2.0039 0.47656-2.4961-0.625-0.42188-0.94531-1.0938-2.0078 0.058593-3.0312 0.57813-0.51172 1.0039-1.1992 1.6562-1.8906 2.418 1.3047 4.6484 1.4492 7.2148 0.46094 2.4336-0.9375 5.0977-0.74609 7.8477 0z" fill="#fc7f47"/>
<path d="m65.988 395.24c0.5 2.1211 2.0156 3.6992 3.1016 5.5039 0.31641 0.52344 0.60938 1.0664 0.91797 1.7617-2.7656-0.066406-5.5391-0.29297-8.875-0.5625 1.7695-2.4922 3.2422-4.5625 4.8555-6.7031z" fill="#fdc850"/>
<path d="m439.81 341.09c0.94141 1.9414 1.6992 3.8047 2.457 5.6719-0.09375 0.10547-0.19141 0.21484-0.28906 0.32031-0.6875-0.41797-1.3789-0.83594-2.0703-1.2539-1.3789-0.83203-1.5234-0.78516-2.3047 0.62891-0.18359 0.32812-0.42969 0.62109-0.66406 0.92187-0.035156 0.046876-0.14062 0.046876-0.34766 0.10547-1.1758-0.53516-1-1.5898-0.6875-2.5547 0.46484-1.4297 0.32031-2.7891-0.14844-4.3633 1.2852 0.015626 2.5781 0.23438 4.0547 0.52344z" fill="#fc7f47"/>
<path d="m68.867 390.95c0.55078 1.4141 1.043 2.918 0.24219 4.5859-0.93359-0.11328-1.7695-0.21484-2.8008-0.33594 0.67969-1.3984 1.5547-2.7773 2.5586-4.25z" fill="#fdc850"/>
<path d="m120.93 358.24c0.24219 0.054688 0.51172 0.23828 0.77734 0.42188-0.1875 0.054688-0.375 0.10547-0.64062 0.058594-0.089844-0.18359-0.10156-0.26953-0.13672-0.48047z" fill="#fdc850"/>
<path d="m451.41 182.52c0.14062-0.19141 0.24609-0.23828 0.35156-0.28906 0.046876 0.11719 0.089844 0.23047 0.13281 0.34375-0.17188 0.03125-0.34766 0.0625-0.48438-0.054687z" fill="#fc6c41"/>
<path d="m210.81 199.45c0.10938 0.082031 0.078125 0.22656-0.085938 0.44141-0.15234-0.085937-0.12891-0.23438 0.085938-0.44141z" fill="#fcad48"/>
<path d="m16.586 246.26c-0.125-0.054688-0.19922-0.15625-0.27734-0.25781 0.10547-0.023437 0.21484-0.042968 0.36719 0.027344 0.042969 0.09375-0.046875 0.18359-0.089843 0.23047z" fill="#fdbb49"/>
<path d="m129.17 236.98c7.1328 2.168 13.504 5.5625 19.941 8.8203 1.6836 0.85156 3.3633 1.707 5.3086 2.6953 0.47266-1.3281 0.90234-2.3984 1.2305-3.5 0.69922-2.3555 1.2266-4.7656 2.0547-7.0703 0.5-1.3828 1.2578-2.7695 2.2227-3.8711 1.8047-2.0547 4.4961-1.707 6.0195 0.62891 1.3125 2.0039 1.5156 4.3164 1.6133 6.6133 0.21094 5.1094-0.64844 10.117-1.6094 15.098-1.9688 10.215-5.043 20.125-8.4883 29.922-1.2383 3.5156-2.6523 6.9805-4.9102 10-0.84766 1.1328-1.8047 2.2266-2.8789 3.1367-2.125 1.8047-4.6055 2.1172-7.1289 0.98828-2.4141-1.0859-3.3672-3.207-3.5352-5.7617-0.23438-3.543 0.34766-7 1.5742-10.273 2.168-5.7852 4.5781-11.477 6.8789-17.211 0.32031-0.80078 0.59375-1.6211 0.94922-2.6055-0.62109-0.44531-1.1523-0.89062-1.7383-1.2422-7.4141-4.4766-14.574-9.3125-21.121-14.988-2.2617-1.957-4.2578-4.2461-6.2148-6.5234-0.96484-1.125-1.8398-2.5977-1.0195-4.1484 0.83594-1.5781 2.5469-1.9688 4.1289-1.8477 2.1953 0.16406 4.3633 0.69922 6.7227 1.1367z" fill="#fffdfc"/>
<path d="m209.36 257.14c2.3906-0.070312 4.5781 0.12891 6.6211 1.1289 3.543 1.7305 5.6367 4.4648 5.8945 8.8867 0.035156 1.4336-0.027344 2.4805 0.11328 3.4922 0.63672 4.5469 1.3281 9.0859 2 13.625-0.019532 2.2109 0.10547 4.4336-0.097657 6.625-0.3125 3.4336-2.0664 6.0117-5.3594 7.2148-3.3828 1.2383-6.6445 0.71875-9.3555-1.668-1.3945-1.2344-2.4102-2.9023-3.6016-4.3711-0.19141-0.23828-0.40234-0.46484-0.55859-0.64844-2.5664 1.0664-5 2.2383-7.5391 3.0938-4.168 1.4023-8.4414 2.0352-12.867 1.2734-8.1562-1.3984-13.121-6.2969-15.441-14.02-1.4922-4.9648-1.3477-10.012-0.089844-15.031 0.09375-0.38281 0.19531-0.76953 0.35156-1.1289 0.57812-1.3242 1.6562-1.8516 3.0391-1.8672 1.3164-0.015625 2.0234 0.77344 2.4414 1.8984 0.44531 1.1875 0.80859 2.4023 1.2695 3.582 1.1406 2.9062 2.6406 5.6016 4.9062 7.793 4 3.8711 9.0469 4.0273 13.266 0.42187 4.0703-3.4766 6.4727-8.0586 7.8281-13.078 1.0469-3.8867 3.1133-6.3008 7.1797-7.2227z" fill="#fffdfc"/>
<path d="m224.15 284.29c-0.83203-4.543-1.5234-9.082-2.1602-13.625-0.14063-1.0156-0.078126-2.0586-0.078126-3.3047 2.0859-0.058594 4.1484 0.10156 6.4375 0.46484-0.4375 3.707-0.53906 7.2344-0.046874 10.766 0.69531 4.9883 2.8828 9.2539 6.2656 12.992-0.0625 1.2109-0.17187 2.3281 0.089844 3.3516 0.56641 2.1914 1.3242 4.3359 2.0039 6.5-2.4141-0.89844-4.8477-1.75-7.2383-2.7031-1.8281-0.73047-2.2578-1.918-1.3867-3.7969 0.63281-1.3672 1.3711-2.6758 0.84375-4.2539-0.77734-2.3086-1.5352-4.6367-3.6836-6.1133-0.24609-0.16797-0.58984-0.1875-1.0469-0.27734z" fill="#fcae4b"/>
<path d="m236.73 301.57c-0.75-2.3086-1.5078-4.4531-2.0742-6.6445-0.26172-1.0234-0.15234-2.1406 0.0625-3.2812 3.082 2.2422 6.25 3.8477 9.8945 4.1172 2.7305 0.20312 5.4922 0.015625 8.2383 0.003906-0.37109 1.0078-0.5625 2.1484-1.168 2.9922-0.60547 0.84766-1.5312 1.6211-2.4883 2.0156-1.082 0.45312-1.8789 1.0703-2.5 2.0078-0.21484 0.32422-0.44531 0.64453-0.68359 0.94922-1.1797 1.5156-2.3633 3.0234-3.6602 4.6797-1.2812-0.003906-1.9766-1.3242-3.1641-2.1562-0.38672-1.8125-1.3398-3.1953-2.457-4.6836z" fill="#fca246"/>
<path d="m317.91 251.91c4.7656 0.80859 7.0664 3.8555 8.1094 8.1172 0.12891 0.51562 0.23047 1.043 0.45312 2.082 0.69531-1.1328 1.1758-1.9023 1.6406-2.6836 2.3516-3.957 4.8984-7.7734 8.1445-11.078 2.1445-2.1875 4.5742-3.8984 7.7969-4.6562 3.7344-0.52734 6.7383 0.50781 9.2969 3.4922 3.4062 4.7695 4.5703 10.004 5.1953 15.348 0.54688 4.6875 0.71484 9.418 1.0508 14.129-0.15234 2.9219-0.30859 5.8438-0.44922 8.7656-0.24609 5.0547-6.0742 9.8477-12.695 8.168-2.7734-0.70312-4.4727-2.7422-4.9102-5.5508-0.48437-3.1211-0.79297-6.2812-1.0039-9.4336-0.26953-4.1055-0.36719-8.2227-0.54688-12.332-0.019531-0.44141-0.089843-0.88281-0.17969-1.7539-0.61719 0.69531-0.99609 1.0391-1.2734 1.4453-3.2461 4.7305-5.5586 9.9219-7.625 15.254-1.1406 2.9414-2.4844 5.8164-3.9297 8.625-0.59375 1.1523-1.6953 2.043-2.668 3.1641-1.4219 0.30078-2.7695 0.77344-4.0547 0.63672-3.4336-0.36719-5.9453-3.1055-5.9961-6.5938-0.085938-5.5508 0.03125-11.102 0.050781-16.652 0.003906-2.1875-0.027344-4.375-0.039062-6.6719-1.6836 0.019532-2.5039 0.91797-3.1992 1.832-1.8672 2.4609-3.75 4.9219-5.4336 7.5078-2.2969 3.5156-4.4219 7.1445-6.6055 10.734-0.96094 1.5859-2.2812 2.6055-4.1602 2.8359-3.2695 0.40234-5.9258-1.1562-6.6562-4.375-0.48047-2.125-0.59766-4.4219-0.38672-6.5938 0.60156-6.2227 1.4492-12.422 2.207-18.629 0.17578-1.4414 0.50391-2.8203 1.8164-3.9219 0.58984-0.19141 1.0859-0.25391 1.9102-0.28516 0.70312 0.21484 1.0742 0.39453 1.4453 0.57422 0.30859 1.8594 0.77734 3.7031 0.89844 5.5742 0.26953 4 0.35938 8.0117 0.54297 12.578 0.63281-1.0859 1.0195-1.7227 1.3789-2.375 2.9688-5.3789 6.5977-10.219 11.434-14.078 2.4102-1.9258 5.0898-3.1641 8.4414-3.1992z" fill="#fffdfc"/>
<path d="m253 295.71c-2.8945 0.0625-5.6562 0.25-8.3867 0.046875-3.6445-0.27344-6.8164-1.875-9.7734-4.2539-3.6602-3.668-5.8477-7.9375-6.543-12.926-0.48828-3.5312-0.38672-7.0586 0.26562-10.766 0.16797-0.72656 0.33594-1.25 0.51953-1.7695 0.53906-1.5117 1.4883-2.2422 2.9648-2.2969 1.4453-0.050781 2.0391 0.42578 2.7578 2.1133 1.082 2.543 2.043 5.1523 3.3477 7.5742 0.80469 1.5 2.0273 2.8438 3.2852 4.0195 3.2891 3.0742 7.5469 3.3945 11.367 0.98828 2.7617-1.7383 4.7383-4.2266 6.2031-7.0664 1.1562-2.2383 2.3789-4.5547 2.918-6.9844 1.7852-8.0625 9.7734-8.6016 14.797-5.5977 0.54297 0.32422 1.0508 0.71094 1.7266 1.1289 2.125 2.168 3 4.6172 3.2383 7.5469 0.41016 5.125 1.3594 10.203 1.8789 15.324 0.28125 2.75 0.40234 5.5664 0.14062 8.3086-0.62109 6.5078-8.1562 9.7734-13.766 6.1133-1.6953-1.1055-3.0156-2.5586-4.082-4.2617-0.33203-0.51953-0.65625-1.0469-0.98828-1.5781-2.4219 1.0391-4.7383 2.0273-7.3633 3.1484-1.4492 0.46094-2.5898 0.79297-3.7305 1.1211-0.20703 0.007812-0.41797 0.011718-0.77734 0.066406z" fill="#fffdfc"/>
<path d="m253.86 295.81c1.0703-0.48438 2.207-0.81641 3.5312-1.168 0.42578 0.64062 0.61328 1.3359 0.92188 1.9648 0.48047 0.96875 0.011718 1.7188-0.51953 2.3945-0.61328 0.78125-1.5859 0.67578-2.1562-0.19531-0.60547-0.92188-1.1406-1.8945-1.7773-2.9961z" fill="#fca246"/>
<path d="m291.57 216.14c0.84766 1.5273 1.707 2.832 0.97266 4.5859-0.76953 1.8359-2.3086 2.6094-4.1211 1.793-0.28906-0.12891-0.60938-0.25-0.82031-0.46875-2.7539-2.832-5.5391-5.6367-8.2148-8.5391-1.8008-1.9531-1.8164-4.6641-2.6289-7.0312-0.34375-0.99219 0.26172-1.5703 1.4102-1.7031 0.54688-0.058594 1.1055-0.019531 1.6602-0.019531 3.3242-0.007813 3.3516-0.015625 4.4727 3.2188 0.64453 1.8633 1.8164 3.3008 3.2812 4.5625 1.3125 1.1328 2.5859 2.3086 3.9883 3.6016z" fill="#fc9244"/>
<path d="m295.21 253.24c-0.37891-0.007812-0.75-0.1875-1.2656-0.42969 0.14453-0.3125 0.43359-0.5625 0.72266-0.8125 0.18359 0.35547 0.36719 0.71094 0.54297 1.2422z" fill="#fcad48"/>
<path d="m382.91 288.38c0.039062 2.125 0.18359 4.0977-0.042969 6.0273-0.25781 2.168-1.3164 4.0234-3.2305 5.4922-1.9961 0.91797-3.918 1.2812-6.2812 0.58594-3.207-0.93359-4.9648-2.8633-5.7891-5.6953-0.19531-0.67578-0.39453-1.3477-0.59375-2.0195-0.23438-3.793-0.46484-7.5859-0.64844-11.781 0.11719-0.78516 0.21094-1.1719 0.24219-1.5664 0.37891-4.4414 1.5625-8.6992 3.0742-12.867 0.78516-2.1602 2.4375-3.3633 4.2109-3.1914 2.0742 0.20703 2.543 1.7617 2.9766 3.457 0.64062 2.5117 1.4375 4.9844 2.168 7.4727 1.2812 4.6367 2.5664 9.2734 3.9141 14.086z" fill="#fffcfb"/>
<path d="m379.19 274.29c-0.92969-2.4766-1.7266-4.9492-2.3672-7.457-0.43359-1.6992-0.89844-3.2539-2.9766-3.4609-1.7695-0.17188-3.4258 1.0312-4.207 3.1914-1.5156 4.168-2.6992 8.4258-3.0742 12.867-0.035156 0.39453-0.12891 0.78125-0.26562 1.3477-1.0039-0.34766-1.9805-0.80859-2.8633-1.4102-1.2148-0.83203-2.3594-1.7734-3.6914-2.6875-0.5-4.7305-0.66797-9.4609-1.2148-14.148-0.62109-5.3438-1.7852-10.582-5.0664-15.246 1.1836-0.28125 2.418-0.51562 3.6523-0.50781 1.4688 0.007812 2.9336 0.22656 4.6836 0.50391 2.0898 5.1328 5.4414 7.2852 11.051 7.0664 0.62109 0.76562 1.1953 1.5742 1.8711 2.2852 1.7852 1.8711 3.6289 3.6875 5.4219 5.5469 1.6836 1.75 1.5352 3.9531 1.1016 6.0195-0.33984 1.6133-0.91797 3.1602-0.78516 4.8477 0.058593 0.75-0.27344 1.2031-1.2695 1.2422z" fill="#fc9346"/>
<path d="m366.79 292.81c0.39453 0.64844 0.59375 1.3203 0.79297 1.9961 0.82422 2.8281 2.582 4.7617 5.5977 5.6992-0.36328 1.375-0.4375 2.6406 0.41797 3.8789 0.21484 0.30859 0.25391 0.73828 0.36719 1.1172 0.6875 2.2539-0.16797 3.3203-2.4922 3.0469-0.53125-0.0625-1.082-0.25-1.5547-0.50391-1.1367-0.62109-2.0078-0.41016-2.9727 0.46094-1.9219 1.7383-2.9883 1.457-4.0898-0.92578-0.8125-1.75-1.2344-3.5-0.66016-5.4844 0.26172-0.89844-0.070312-1.9883-0.21094-2.9805-0.125-0.85156-0.40625-1.6758-0.52734-2.5273-0.12109-0.86719 0.24609-1.5156 1.0898-1.8867 1.3555-0.60547 2.6992-1.2422 4.2422-1.8906z" fill="#fc9244"/>
<path d="m373 254.29c-5.7617 0.29297-9.1133-1.8594-11.004-6.9883-0.054688-4.1367 2.6016-5.2812 5.7305-5.8281 2.793-0.48438 5.6797-0.23438 8.3984 0.85938 3.0547 1.2266 3.7695 2.9219 2.4922 5.9531-1.1094 2.6328-2.7109 4.8164-5.6172 6.0039z" fill="#fffcfb"/>
<path d="m327.12 230.94c-0.039063 0.15234-0.13672 0.24609-0.23047 0.33984-0.03125-0.125-0.0625-0.24609-0.015625-0.44531 0.082031-0.070312 0.19141 0.046875 0.24609 0.10547z" fill="#fff"/>
</g>
</svg>
